<svg width="282" height="278" viewBox="0 0 282 278" fill="none" xmlns="http://www.w3.org/2000/svg">
<path d="M275.718 11.2812L281.56 3.54749L278.012 -9.15527e-05L275.328 3.54749H2.36505V20.7178L13.5991 28.7353L5.91263 43.1267V56.3828L10.4062 63.4189L7.75738 68.5156H2.36505L5.91263 72.0632H276.783L281.56 61.7633V55.5551L274.713 47.6794L281.56 37.3205V23.6505L273.885 13.7054L275.718 11.2812Z" fill="#C99663"/>
<path d="M273.235 68.5156H2.36505L6.85866 59.8713L2.36505 52.8353V39.5791L10.9975 23.414L2.36505 16.7918V-9.15527e-05H278.012L270.338 10.1578L278.012 20.1029V33.7729L271.165 44.1319L278.012 52.0075V58.2158L273.235 68.5156Z" fill="#F4C790"/>
<mask id="mask0_0_4" style="mask-type:luminance" maskUnits="userSpaceOnUse" x="2" y="0" width="277" height="69">
<path d="M273.235 68.5156H2.36505L6.85866 59.8713L2.36505 52.8353V39.5791L10.9975 23.414L2.36505 16.7918V-9.15527e-05H278.012L270.338 10.1578L278.012 20.1029V33.7729L271.165 44.1319L278.012 52.0075V58.2158L273.235 68.5156Z" fill="white"/>
</mask>
<g mask="url(#mask0_0_4)">
<path d="M-0.106442 0.330853C0.0827627 1.01672 0.662202 1.34783 1.31259 1.41878C1.32442 1.41878 1.34807 1.41878 1.37172 1.41878C1.40719 1.41878 1.44267 1.41878 1.47815 1.41878C1.57275 1.41878 1.66735 1.44243 1.76195 1.44243C45.1253 2.09282 88.595 2.15195 131.935 0.886641C159.133 0.094347 186 -2.88562 213.103 -4.75402C236.281 -6.35043 259.482 -7.63938 282.707 -8.70366C283.83 -8.75096 284.552 -9.36588 284.646 -10.2528C284.682 -10.5839 284.717 -10.9268 284.753 -11.2579C284.835 -12.062 283.807 -12.8425 282.825 -12.807C260.286 -11.8137 237.759 -10.5129 215.267 -8.99929C187.986 -7.16637 160.942 -4.12728 133.555 -3.29951C89.5528 -1.97508 45.4327 -2.32984 1.41902 -2.98023C0.106414 -3.00388 -0.709528 -1.9869 -0.449371 -1.02905C-0.331119 -0.591518 -0.212867 -0.153984 -0.094614 0.283551L-0.106442 0.330853Z" fill="#E8AF70"/>
<path d="M-0.130077 9.24717C-0.0118247 9.6374 0.236504 9.89756 0.555786 10.0868C0.851418 10.276 1.24165 10.3942 1.73831 10.3824C43.0085 9.75565 84.2906 8.84511 125.537 7.63893C149.826 6.92941 174.198 5.02554 198.475 4.71808C226.714 4.3515 256.467 10.1222 282.624 18.5418C283.807 18.9202 285.072 17.9742 285.072 17.0518C285.072 16.6025 285.072 16.165 285.072 15.7156C285.072 14.9706 284.469 14.4858 283.653 14.2256C258.666 6.11347 230.924 1.37153 204.01 0.662014C191.64 0.330906 179.141 1.59621 166.784 2.11652C153.8 2.66049 140.815 3.06255 127.831 3.42913C85.6741 4.62348 43.5052 5.30935 1.33625 6.03069C0.0709496 6.05434 -0.839594 7.00036 -0.532137 7.98186C-0.390234 8.40757 -0.260157 8.84511 -0.118254 9.27082L-0.130077 9.24717Z" fill="#E8AF70"/>
<path d="M1.70284 23.6622C31.9992 21.7819 62.4375 20.7058 92.6156 17.8796C114.232 15.8575 135.695 16.094 157.442 16.7799C199.41 18.1043 240.964 22.2786 282.541 26.8432C284.067 27.0087 285.178 26.1928 284.918 24.9393C284.824 24.4663 284.717 23.9933 284.623 23.5203C284.528 23.0591 283.866 22.5033 283.275 22.4442C242.335 18.0333 201.29 14.1901 159.996 12.7711C138.048 12.0143 115.935 11.3521 94.1174 13.658C63.5254 16.8745 32.484 17.6904 1.73831 19.5943C0.662211 19.6652 -0.16556 20.2447 -0.18921 21.1434C-0.201036 21.4745 -0.212859 21.8056 -0.224685 22.1485C-0.23651 22.5151 -0.118257 22.8226 0.0945983 23.0473C0.378405 23.4611 0.910543 23.7331 1.70284 23.6858V23.6622Z" fill="#E8AF70"/>
<path d="M275.399 46.887C266.53 46.142 257.756 44.4629 249.1 42.8073C229.257 39.0114 209.733 34.2103 190.127 29.7049C175.948 26.4411 161.285 22.456 146.503 21.3799C137.386 20.7177 128.091 21.1789 118.986 21.5691C79.5487 23.2838 40.135 27.3635 1.0288 31.7625C-0.106428 31.8926 -0.484838 32.5903 -0.33111 33.288C-0.33111 33.4062 -0.331107 33.5363 -0.319282 33.6664C-0.260155 33.9975 -0.201032 34.3286 -0.141905 34.6479C0.0118232 35.5584 1.30078 35.8304 2.23498 35.724C39.1298 31.5969 76.2376 27.9548 113.404 25.9445C122.64 25.4478 131.923 25.0694 141.182 25.2586C154.32 25.5306 167.269 28.9244 179.815 31.7389C199.232 36.0787 218.508 40.797 238.007 44.9004C252.836 48.0223 268.186 51.2742 283.582 51.7236C284.966 51.7591 286.113 50.3518 285.249 49.4058C282.648 46.5205 279.727 47.2654 275.375 46.8989L275.399 46.887Z" fill="#E8AF70"/>
<path d="M139.077 42.819C143.996 41.5419 149.259 40.2647 153.74 38.1362C154.911 37.5804 156.744 36.5043 156.614 35.2153C156.129 30.568 143.843 31.3485 139.822 31.2657C114.575 30.7099 89.1271 32.46 63.9629 33.9145C43.1504 35.1207 22.3498 36.5043 1.57276 38.0652C0.532134 38.148 -0.378414 38.7038 -0.354763 39.6143C-0.354763 39.9454 -0.342938 40.2766 -0.331112 40.6195C-0.319287 41.4 0.543958 42.2395 1.60823 42.1686C43.4342 39.0231 85.5086 35.984 127.524 35.3572C132.112 35.2863 136.712 35.2863 141.3 35.4045C143.062 35.4518 144.812 35.5346 146.574 35.641C147.331 35.6883 147.899 35.7711 148.348 35.8302C146.208 36.5752 143.346 37.3321 142.081 37.6986C120.594 44.0252 98.0788 48.365 75.9064 52.835C50.9788 57.8607 25.9092 62.4608 0.815941 66.9071C-0.236509 67.0963 -0.638568 67.7585 -0.555791 68.4207C-0.674044 69.0948 -0.28381 69.7688 0.815941 69.887C9.95688 70.8922 20.5878 67.2027 29.3858 65.5353C51.8302 61.2782 74.2627 56.962 96.6007 52.3856C110.85 49.4648 125.1 46.4493 139.089 42.819H139.077Z" fill="#E8AF70"/>
<path d="M1.64371 63.4898C13.9538 61.042 26.193 58.3222 38.2902 55.2949C42.2281 54.3134 62.1537 50.955 62.1537 45.9766C62.1537 38.0418 8.36047 45.6218 0.910541 46.4141C0.141898 46.4969 -0.603091 47.301 -0.508489 47.9041C-0.461188 48.2352 -0.402064 48.5545 -0.354763 48.8856C-0.236511 49.6306 0.437532 50.5529 1.57276 50.4347C12.3929 49.2758 23.2248 48.2825 34.0923 47.502C38.5504 47.1827 43.0204 46.9344 47.4903 46.7807C49.406 46.7097 51.3335 46.6979 53.2492 46.7216C53.3911 46.7216 53.5212 46.7334 53.6631 46.7334C47.8096 49.2995 39.863 50.4583 33.9149 51.8892C22.9056 54.5381 11.7661 56.8795 0.614909 59.1026C-0.0473064 59.2327 -0.43754 59.552 -0.626744 59.9304C-0.626744 59.9422 -0.63857 59.9659 -0.650395 59.9777C-0.674046 60.025 -0.697696 60.0723 -0.709521 60.1196C-0.768647 60.2615 -0.804121 60.4152 -0.804121 60.5808C-0.804121 61.042 -0.804123 61.515 -0.815948 61.9762C-0.815948 63.005 0.425705 63.7027 1.63188 63.4662L1.64371 63.4898Z" fill="#E8AF70"/>
<path d="M271.508 55.1646C260.866 54.1003 250.27 52.6458 239.722 51.0967C219.726 48.164 199.398 41.5892 178.869 43.9897C166.476 45.4442 154.438 48.306 142.376 50.9193C127.748 54.0885 113.026 56.9621 98.2917 59.7765C85.7096 62.177 73.1157 64.4948 60.4981 66.7889C56.1228 67.5812 50.7541 67.9241 46.5206 69.3313C46.1068 69.3786 45.7875 69.5205 45.551 69.7334C44.3211 70.5375 45.0898 72.5951 46.8399 72.4177C46.8754 72.4177 46.9109 72.4177 46.9464 72.4177C59.0909 73.0681 71.3656 69.284 83.0844 67.0254C111.122 61.6094 138.912 55.4248 166.926 49.9851C178.077 47.8211 189.252 46.6268 200.604 48.3887C210.656 49.9497 220.553 52.3502 230.617 53.9584C247.775 56.7019 265.915 60.0366 283.499 60.285C285.332 60.3086 285.852 58.6412 284.871 57.6479C282.045 54.8335 275.742 55.6021 271.497 55.1764L271.508 55.1646Z" fill="#E8AF70"/>
<path d="M284.173 67.1083C283.972 66.4106 283.144 66.0322 282.305 65.973C251.524 64.0573 220.66 62.4018 189.938 59.8476C175.026 58.6059 158.577 62.5319 144.079 64.8378C129.7 67.1319 115.344 69.5916 101.071 72.2523C100.515 72.2759 100.101 72.4651 99.8408 72.7489C99.2377 73.3047 99.3323 74.1916 99.9236 74.7711C99.9945 74.842 100.077 74.9011 100.16 74.9603C100.172 74.9603 100.184 74.9839 100.196 74.9839C100.278 75.043 100.373 75.0903 100.479 75.1376C100.479 75.1376 100.503 75.1376 100.515 75.1495C100.609 75.1849 100.716 75.2204 100.834 75.2441C100.858 75.2441 100.881 75.2559 100.905 75.2677C100.976 75.2795 101.035 75.2914 101.106 75.2914C101.177 75.2914 101.236 75.315 101.307 75.315C113.771 75.9772 127.11 71.8384 139.219 69.8044C149.27 68.1253 159.346 66.5288 169.48 65.1926C175.984 64.3293 182.665 63.336 189.264 63.9036C220.317 66.5998 251.535 68.3736 282.671 70.372C283.984 70.4548 284.8 69.3314 284.54 68.4209C284.41 67.9834 284.291 67.534 284.161 67.0965L284.173 67.1083Z" fill="#E8AF70"/>
</g>
<path opacity="0.18" d="M140.189 -9.15527e-05H2.36505V3.54749V16.7918V20.7178L9.66125 25.9209L2.36505 39.5791V52.8353L6.85866 59.8713L2.36505 68.5156L5.91263 72.0632H140.189V-9.15527e-05Z" fill="white"/>
<path d="M280.85 72.678L276.12 67.9479V72.678H5.20315V83.2971L10.2525 89.9311L5.20315 100.964V136.464H0.473038L5.20315 141.194H280.85V115.225L276.369 107.362L280.85 97.0026V72.678Z" fill="#C99663"/>
<path d="M276.12 136.464H0.473038V96.234L5.52243 85.201L0.473038 78.567V67.9479H276.12V92.2725L271.639 102.631L276.12 110.495V136.464Z" fill="#F4C790"/>
<mask id="mask1_0_4" style="mask-type:luminance" maskUnits="userSpaceOnUse" x="0" y="67" width="277" height="70">
<path d="M276.12 136.464H0.473038V96.234L5.52243 85.201L0.473038 78.567V67.9479H276.12V92.2725L271.639 102.631L276.12 110.495V136.464Z" fill="white"/>
</mask>
<g mask="url(#mask1_0_4)">
<path d="M292.356 70.7149C292.132 70.3601 291.907 70.0172 291.682 69.6624C291.41 69.2367 290.937 68.8938 290.405 68.9293C205.157 74.2861 119.483 75.4568 34.1041 75.3386C19.5236 75.3149 4.95481 75.2203 -9.62575 75.0784C-10.1106 75.0784 -10.4653 75.2558 -10.7019 75.5396C-11.0448 75.8234 -11.3995 76.0954 -11.7425 76.3792C-12.7949 77.2306 -11.8844 78.8861 -10.7019 78.898C88.8079 79.9149 188.554 78.6851 287.934 73.1272C288.986 73.0681 290.027 73.009 291.079 72.9498C292.143 72.8789 292.995 71.7318 292.356 70.7267V70.7149Z" fill="#E8AF70"/>
<path d="M290.015 81.9488C289.743 81.523 289.27 81.1801 288.738 81.2156C188.613 87.2583 87.9446 89.5169 -12.3456 88.0151C-13.1615 88.0033 -13.6227 88.5354 -13.7409 89.1622C-13.7764 89.2686 -13.8001 89.375 -13.8237 89.4933C-13.8828 89.8953 -13.9301 90.2974 -13.9893 90.6995C-14.0957 91.5036 -13.2325 92.1658 -12.5111 92.1776C88.051 93.6794 189.003 91.3853 289.4 85.2362C290.464 85.1652 291.316 84.0182 290.677 83.013C290.453 82.6583 290.228 82.3035 290.003 81.9606L290.015 81.9488Z" fill="#E8AF70"/>
<path d="M285.888 104.784C258.063 101.78 229.552 102.49 201.621 102.147C159.901 101.626 118.17 101.52 76.4505 101.496C46.5561 101.484 16.6737 101.532 -13.2206 101.674C-13.2325 101.674 -13.2443 101.674 -13.2679 101.674C-13.469 101.674 -13.67 101.709 -13.8592 101.792C-13.8947 101.804 -13.9301 101.827 -13.9656 101.851C-14.0011 101.875 -14.0366 101.898 -14.0839 101.922C-14.143 101.957 -14.1903 102.005 -14.2494 102.052C-14.2731 102.076 -14.2967 102.087 -14.3204 102.111C-14.6751 102.466 -15.0299 102.832 -15.3847 103.187C-16.2952 104.098 -15.633 105.718 -14.344 105.706C46.4024 105.399 107.149 105.399 167.883 105.848C192.338 106.025 216.805 106.285 241.259 106.829C256.088 107.16 271.095 107.196 285.852 108.792C286.668 108.875 287.307 108.047 287.331 107.314C287.331 106.971 287.354 106.617 287.354 106.274C287.378 105.399 286.657 104.878 285.876 104.795L285.888 104.784Z" fill="#E8AF70"/>
<path d="M282.612 128.339C211.956 122.864 141.265 117.685 70.5615 112.943C42.3936 111.051 14.214 109.194 -13.9893 107.811C-14.8171 107.775 -15.2901 108.307 -15.3965 108.946C-15.4556 109.171 -15.4793 109.419 -15.4201 109.691C-15.3492 110.046 -15.2664 110.4 -15.1955 110.755C-15.0536 111.417 -14.4032 111.808 -13.7646 111.843C65.654 115.757 145.013 122.308 224.314 128.056C243.79 129.463 263.254 130.87 282.719 132.36C283.464 132.419 284.28 131.639 284.197 130.882C284.161 130.527 284.114 130.184 284.079 129.829C283.984 128.978 283.476 128.422 282.601 128.351L282.612 128.339Z" fill="#E8AF70"/>
<path d="M280.484 147.875C254.031 144.303 227.341 142.151 200.77 139.573C159.712 135.6 118.655 131.769 77.5857 127.961C46.7335 125.111 15.8814 122.261 -14.9708 119.482C-15.2309 119.364 -15.5266 119.34 -15.8459 119.447C-16.2006 119.494 -16.4608 119.683 -16.6381 119.932C-16.9101 120.121 -17.1939 120.322 -17.4659 120.511C-18.7076 121.374 -18.2109 123.136 -16.7209 123.266C43.3633 128.682 103.448 134.276 163.508 139.987C202.165 143.665 241.07 146.55 279.561 151.753C280.271 151.848 281.264 151.588 281.383 150.725C281.43 150.382 281.477 150.039 281.524 149.708C281.619 148.998 281.359 148.005 280.496 147.887L280.484 147.875Z" fill="#E8AF70"/>
</g>
<path opacity="0.18" d="M140.662 67.9479H0.473038V78.567L5.52243 85.201L0.473038 96.234V136.464L5.20315 141.194H140.662V67.9479Z" fill="white"/>
<path d="M280.377 140.721L275.647 135.991L273.188 140.721H9.50753L4.73011 151.009V157.229L11.5769 165.104L4.73011 175.452V189.122L12.4047 199.067L8.30135 204.506H0L4.73011 209.236H280.377V192.444L271.745 185.81L280.377 169.657V156.401L275.884 149.353L280.377 140.721Z" fill="#C99663"/>
<path d="M4.77741 135.991H275.647L271.154 144.623L275.647 151.671V164.927L267.015 181.08L275.647 187.714V204.506H0L7.67461 194.337L0 184.391V170.721L6.84684 160.374L0 152.499V146.279L4.77741 135.991Z" fill="#F4C790"/>
<mask id="mask2_0_4" style="mask-type:luminance" maskUnits="userSpaceOnUse" x="0" y="135" width="276" height="70">
<path d="M4.77741 135.991H275.647L271.154 144.623L275.647 151.671V164.927L267.015 181.08L275.647 187.714V204.506H0L7.67461 194.337L0 184.391V170.721L6.84684 160.374L0 152.499V146.279L4.77741 135.991Z" fill="white"/>
</mask>
<g mask="url(#mask2_0_4)">
<path d="M278.568 195.058C278.379 194.372 277.799 194.041 277.149 193.97C277.137 193.97 277.114 193.97 277.09 193.97C277.054 193.97 277.019 193.97 276.984 193.97C276.889 193.97 276.794 193.946 276.7 193.946C233.336 193.296 189.867 193.237 146.527 194.502C119.329 195.294 92.4619 198.274 65.3583 200.143C42.1808 201.739 18.9796 203.028 -4.24527 204.092C-5.36867 204.14 -6.09002 204.755 -6.18462 205.63C-6.22009 205.961 -6.25557 206.304 -6.29105 206.635C-6.37382 207.439 -5.34502 208.219 -4.36352 208.172C18.1755 207.179 40.7026 205.878 63.1943 204.364C90.4752 202.532 117.52 199.492 144.907 198.665C188.909 197.34 233.029 197.695 277.043 198.345C278.355 198.369 279.171 197.352 278.911 196.394C278.793 195.957 278.675 195.519 278.556 195.082L278.568 195.058Z" fill="#E8AF70"/>
<path d="M278.604 186.142C278.485 185.751 278.237 185.491 277.918 185.302C277.622 185.113 277.232 184.995 276.735 185.007C235.465 185.633 194.195 186.544 152.936 187.75C128.647 188.459 104.275 190.363 79.998 190.671C51.7592 191.037 22.0068 185.267 -4.15068 176.847C-5.33321 176.469 -6.59851 177.415 -6.59851 178.337C-6.59851 178.786 -6.59851 179.224 -6.59851 179.673C-6.59851 180.418 -5.99542 180.903 -5.17948 181.163C19.8192 189.275 47.5494 194.017 74.4638 194.727C86.833 195.058 99.3323 193.793 111.69 193.272C124.674 192.728 137.658 192.326 150.642 191.96C192.799 190.765 234.968 190.08 277.137 189.358C278.414 189.335 279.313 188.389 279.006 187.407C278.864 186.981 278.734 186.544 278.592 186.118L278.604 186.142Z" fill="#E8AF70"/>
<path d="M276.771 171.715C246.474 173.595 216.036 174.671 185.858 177.498C164.241 179.52 142.778 179.283 121.032 178.597C79.0638 177.273 37.5098 173.099 -4.06789 168.534C-5.59335 168.368 -6.70493 169.184 -6.44477 170.438C-6.35017 170.911 -6.24374 171.384 -6.14914 171.857C-6.05454 172.318 -5.39232 172.874 -4.80106 172.933C36.1381 177.344 77.1836 181.187 118.477 182.606C140.425 183.363 162.538 184.025 184.356 181.719C214.948 178.503 245.989 177.699 276.735 175.783C277.811 175.712 278.639 175.132 278.663 174.246C278.674 173.914 278.686 173.583 278.698 173.24C278.71 172.874 278.592 172.566 278.379 172.342C278.095 171.928 277.563 171.656 276.771 171.703V171.715Z" fill="#E8AF70"/>
<path d="M3.06275 148.502C11.9317 149.247 20.7061 150.926 29.3622 152.582C49.205 156.377 68.7285 161.179 88.3348 165.684C102.513 168.948 117.177 172.933 131.958 174.009C141.076 174.671 150.37 174.21 159.476 173.82C198.913 172.105 238.327 168.025 277.433 163.626C278.568 163.496 278.947 162.799 278.793 162.101C278.793 161.983 278.793 161.853 278.781 161.722C278.722 161.391 278.663 161.06 278.604 160.741C278.45 159.83 277.161 159.558 276.227 159.665C239.332 163.792 202.224 167.434 165.057 169.444C155.822 169.941 146.539 170.319 137.28 170.13C124.142 169.858 111.193 166.464 98.6465 163.662C79.2294 159.322 59.9542 154.604 40.4543 150.5C25.6254 147.378 10.2762 144.126 -5.12034 143.677C-6.49208 143.642 -7.65095 145.049 -6.78771 145.995C-4.18615 148.88 -1.26531 148.135 3.0864 148.502H3.06275Z" fill="#E8AF70"/>
<path d="M139.396 152.57C134.477 153.847 129.215 155.124 124.733 157.252C123.562 157.808 121.729 158.884 121.859 160.173C122.344 164.821 134.631 164.028 138.651 164.123C163.898 164.679 189.346 162.929 214.511 161.474C235.323 160.268 256.124 158.884 276.901 157.323C277.941 157.241 278.852 156.685 278.828 155.786C278.828 155.455 278.816 155.124 278.805 154.781C278.793 154.001 277.93 153.161 276.877 153.244C235.051 156.389 192.977 159.428 150.961 160.055C146.373 160.126 141.773 160.126 137.185 160.008C135.423 159.96 133.673 159.878 131.911 159.771C131.154 159.724 130.587 159.641 130.137 159.582C132.278 158.849 135.139 158.08 136.405 157.714C157.891 151.387 180.406 147.047 202.579 142.577C227.507 137.552 252.576 132.952 277.669 128.505C278.722 128.316 279.124 127.654 279.041 126.992C279.159 126.318 278.769 125.644 277.669 125.525C268.528 124.52 257.897 128.21 249.099 129.877C226.655 134.134 204.223 138.45 181.885 143.027C167.635 145.948 153.386 148.963 139.396 152.593V152.57Z" fill="#E8AF70"/>
<path d="M276.83 131.899C264.52 134.347 252.28 137.067 240.183 140.094C236.245 141.076 216.32 144.434 216.32 149.412C216.32 157.347 270.113 149.767 277.563 148.975C278.332 148.892 279.077 148.088 278.982 147.485C278.935 147.154 278.876 146.834 278.828 146.503C278.71 145.758 278.036 144.836 276.901 144.954C266.081 146.113 255.249 147.106 244.381 147.887C239.923 148.206 235.453 148.455 230.983 148.608C229.067 148.679 227.14 148.691 225.224 148.667C225.082 148.667 224.952 148.656 224.81 148.656C230.664 146.089 238.61 144.931 244.559 143.5C255.568 140.851 266.707 138.509 277.859 136.286C278.521 136.156 278.911 135.837 279.1 135.459C279.1 135.447 279.112 135.423 279.124 135.411C279.147 135.364 279.171 135.317 279.183 135.269C279.242 135.127 279.278 134.974 279.278 134.808C279.278 134.347 279.278 133.874 279.289 133.413C279.289 132.384 278.048 131.686 276.842 131.923L276.83 131.899Z" fill="#E8AF70"/>
<path d="M6.9651 140.224C17.6078 141.289 28.2033 142.743 38.7514 144.292C58.748 147.225 79.0756 153.811 99.6043 151.399C111.997 149.945 124.035 147.083 136.097 144.47C150.725 141.3 165.447 138.427 180.182 135.612C192.764 133.212 205.358 130.894 217.975 128.6C222.351 127.808 227.719 127.465 231.953 126.058C232.367 126.01 232.686 125.868 232.923 125.655C234.152 124.84 233.384 122.794 231.634 122.971C231.598 122.971 231.563 122.971 231.527 122.971C219.383 122.321 207.108 126.105 195.389 128.363C167.351 133.779 139.562 139.964 111.548 145.404C100.397 147.568 89.2217 148.762 77.8695 147C67.818 145.439 57.9202 143.039 47.8569 141.43C30.6984 138.687 12.5584 135.352 -5.02574 135.104C-6.85866 135.08 -7.37897 136.748 -6.39747 137.741C-3.57123 140.555 2.73164 139.787 6.97692 140.212L6.9651 140.224Z" fill="#E8AF70"/>
<path d="M-5.69979 128.281C-5.49876 128.978 -4.67099 129.357 -3.8314 129.416C26.9616 131.331 57.8138 132.987 88.5359 135.541C103.448 136.783 119.896 132.857 134.394 130.551C148.774 128.257 163.13 125.797 177.403 123.137C177.959 123.113 178.373 122.924 178.633 122.64C179.236 122.084 179.141 121.197 178.55 120.618C178.479 120.547 178.396 120.488 178.313 120.429C178.302 120.429 178.29 120.405 178.278 120.405C178.195 120.346 178.101 120.298 177.994 120.251C177.994 120.251 177.97 120.251 177.959 120.239C177.864 120.204 177.758 120.168 177.639 120.145C177.616 120.145 177.592 120.133 177.568 120.121C177.497 120.109 177.438 120.097 177.367 120.097C177.296 120.097 177.237 120.074 177.166 120.074C164.702 119.412 151.364 123.55 139.254 125.584C129.203 127.264 119.128 128.86 108.994 130.196C102.49 131.059 95.8084 132.053 89.2099 131.485C58.1567 128.789 26.938 127.015 -4.18615 125.017C-5.49876 124.934 -6.31471 126.057 -6.05455 126.968C-5.92447 127.405 -5.80622 127.855 -5.67614 128.292L-5.69979 128.281Z" fill="#E8AF70"/>
</g>
<path opacity="0.18" d="M140.189 135.991H4.77741L0 146.279V152.499L6.84684 160.374L0 170.721V184.391L7.67461 194.337L0 204.506L4.73011 209.236H140.189V135.991Z" fill="white"/>
<path d="M280.377 208.73L275.647 204L273.188 208.73H9.50753L4.73011 219.018V225.238L11.5769 233.114L4.73011 243.461V257.131L12.4047 267.076L8.30135 272.516H0L4.73011 277.246H280.377V260.454L271.745 253.82L280.377 237.667V224.41L275.884 217.363L280.377 208.73Z" fill="#C99663"/>
<path d="M4.77741 204H275.647L271.154 212.632L275.647 219.68V232.936L267.015 249.09L275.647 255.724V272.516H0L7.67461 262.346L0 252.401V238.731L6.84684 228.384L0 220.508V214.288L4.77741 204Z" fill="#F4C790"/>
<mask id="mask3_0_4" style="mask-type:luminance" maskUnits="userSpaceOnUse" x="0" y="204" width="276" height="69">
<path d="M4.77741 204H275.647L271.154 212.632L275.647 219.68V232.936L267.015 249.09L275.647 255.724V272.516H0L7.67461 262.346L0 252.401V238.731L6.84684 228.384L0 220.508V214.288L4.77741 204Z" fill="white"/>
</mask>
<g mask="url(#mask3_0_4)">
<path d="M278.568 263.067C278.379 262.381 277.799 262.05 277.149 261.979C277.137 261.979 277.114 261.979 277.09 261.979C277.054 261.979 277.019 261.979 276.984 261.979C276.889 261.979 276.794 261.956 276.7 261.956C233.336 261.305 189.867 261.246 146.527 262.512C119.329 263.304 92.4619 266.284 65.3583 268.152C42.1808 269.749 18.9796 271.038 -4.24527 272.102C-5.36867 272.149 -6.09002 272.764 -6.18462 273.639C-6.22009 273.97 -6.25557 274.313 -6.29105 274.644C-6.37382 275.448 -5.34502 276.229 -4.36352 276.182C18.1755 275.188 40.7026 273.887 63.1943 272.374C90.4752 270.541 117.52 267.502 144.907 266.674C188.909 265.35 233.029 265.704 277.043 266.355C278.355 266.378 279.171 265.361 278.911 264.404C278.793 263.966 278.675 263.529 278.556 263.091L278.568 263.067Z" fill="#E8AF70"/>
<path d="M278.604 254.151C278.485 253.761 278.237 253.501 277.918 253.312C277.622 253.122 277.232 253.004 276.735 253.016C235.465 253.643 194.195 254.553 152.936 255.759C128.647 256.469 104.275 258.373 79.998 258.68C51.7592 259.047 22.0068 253.276 -4.15068 244.856C-5.33321 244.478 -6.59851 245.424 -6.59851 246.346C-6.59851 246.796 -6.59851 247.233 -6.59851 247.683C-6.59851 248.428 -5.99542 248.913 -5.17948 249.173C19.8192 257.285 47.5494 262.027 74.4638 262.736C86.833 263.067 99.3323 261.802 111.69 261.282C124.674 260.738 137.658 260.336 150.642 259.969C192.799 258.775 234.968 258.089 277.137 257.368C278.414 257.344 279.313 256.398 279.006 255.416C278.864 254.991 278.734 254.553 278.592 254.127L278.604 254.151Z" fill="#E8AF70"/>
<path d="M276.771 239.724C246.474 241.605 216.036 242.681 185.858 245.507C164.241 247.529 142.778 247.293 121.032 246.607C79.0638 245.282 37.5098 241.108 -4.06789 236.543C-5.59335 236.378 -6.70493 237.194 -6.44477 238.447C-6.35017 238.92 -6.24374 239.393 -6.14914 239.866C-6.05454 240.327 -5.39232 240.883 -4.80106 240.942C36.1381 245.353 77.1836 249.196 118.477 250.615C140.425 251.372 162.538 252.035 184.356 249.729C214.948 246.512 245.989 245.708 276.735 243.792C277.811 243.721 278.639 243.142 278.663 242.255C278.674 241.924 278.686 241.593 278.698 241.25C278.71 240.883 278.592 240.576 278.379 240.351C278.095 239.937 277.563 239.665 276.771 239.713V239.724Z" fill="#E8AF70"/>
<path d="M3.06275 216.511C11.9317 217.256 20.7061 218.935 29.3622 220.591C49.205 224.387 68.7285 229.188 88.3348 233.693C102.513 236.957 117.177 240.942 131.958 242.018C141.076 242.681 150.37 242.219 159.476 241.829C198.913 240.114 238.327 236.035 277.433 231.636C278.568 231.506 278.947 230.808 278.793 230.11C278.793 229.992 278.793 229.862 278.781 229.732C278.722 229.401 278.663 229.07 278.604 228.75C278.45 227.84 277.161 227.568 276.227 227.674C239.332 231.801 202.224 235.443 165.057 237.454C155.822 237.95 146.539 238.329 137.28 238.14C124.142 237.868 111.193 234.474 98.6465 231.671C79.2294 227.331 59.9542 222.613 40.4543 218.51C25.6254 215.388 10.2762 212.136 -5.12034 211.686C-6.49208 211.651 -7.65095 213.058 -6.78771 214.004C-4.18615 216.89 -1.26531 216.145 3.0864 216.511H3.06275Z" fill="#E8AF70"/>
<path d="M139.396 220.579C134.477 221.856 129.215 223.133 124.733 225.262C123.562 225.818 121.729 226.894 121.859 228.183C122.344 232.83 134.631 232.038 138.651 232.132C163.898 232.688 189.346 230.938 214.511 229.483C235.323 228.277 256.124 226.894 276.901 225.333C277.941 225.25 278.852 224.694 278.828 223.796C278.828 223.464 278.816 223.133 278.805 222.79C278.793 222.01 277.93 221.17 276.877 221.253C235.051 224.399 192.977 227.438 150.961 228.064C146.373 228.135 141.773 228.135 137.185 228.017C135.423 227.97 133.673 227.887 131.911 227.781C131.154 227.733 130.587 227.651 130.137 227.591C132.278 226.858 135.139 226.09 136.405 225.723C157.891 219.397 180.406 215.057 202.579 210.587C227.507 205.561 252.576 200.961 277.669 196.515C278.722 196.325 279.124 195.663 279.041 195.001C279.159 194.327 278.769 193.653 277.669 193.535C268.528 192.529 257.897 196.219 249.099 197.886C226.655 202.143 204.223 206.46 181.885 211.036C167.635 213.957 153.386 216.972 139.396 220.603V220.579Z" fill="#E8AF70"/>
<path d="M276.83 199.909C264.52 202.356 252.28 205.076 240.183 208.103C236.245 209.085 216.32 212.443 216.32 217.422C216.32 225.357 270.113 217.777 277.563 216.984C278.332 216.901 279.077 216.097 278.982 215.494C278.935 215.163 278.876 214.844 278.828 214.513C278.71 213.768 278.036 212.845 276.901 212.964C266.081 214.123 255.249 215.116 244.381 215.896C239.923 216.216 235.453 216.464 230.983 216.618C229.067 216.689 227.14 216.7 225.224 216.677C225.082 216.677 224.952 216.665 224.81 216.665C230.664 214.099 238.61 212.94 244.559 211.509C255.568 208.86 266.707 206.519 277.859 204.296C278.521 204.166 278.911 203.846 279.1 203.468C279.1 203.456 279.112 203.432 279.124 203.421C279.147 203.373 279.171 203.326 279.183 203.279C279.242 203.137 279.278 202.983 279.278 202.818C279.278 202.356 279.278 201.883 279.289 201.422C279.289 200.393 278.048 199.696 276.842 199.932L276.83 199.909Z" fill="#E8AF70"/>
<path d="M6.9651 208.234C17.6078 209.298 28.2033 210.752 38.7514 212.301C58.748 215.234 79.0756 221.821 99.6043 219.408C111.997 217.954 124.035 215.092 136.097 212.479C150.725 209.31 165.447 206.436 180.182 203.622C192.764 201.221 205.358 198.903 217.975 196.609C222.351 195.817 227.719 195.474 231.953 194.067C232.367 194.02 232.686 193.878 232.923 193.665C234.152 192.849 233.384 190.803 231.634 190.981C231.598 190.981 231.563 190.981 231.527 190.981C219.383 190.33 207.108 194.114 195.389 196.373C167.351 201.789 139.562 207.973 111.548 213.413C100.397 215.577 89.2217 216.771 77.8695 215.009C67.818 213.449 57.9202 211.048 47.8569 209.44C30.6984 206.696 12.5584 203.362 -5.02574 203.113C-6.85866 203.09 -7.37897 204.757 -6.39747 205.75C-3.57123 208.565 2.73164 207.796 6.97692 208.222L6.9651 208.234Z" fill="#E8AF70"/>
<path d="M-5.69979 196.29C-5.49876 196.988 -4.67099 197.366 -3.8314 197.425C26.9616 199.341 57.8138 200.996 88.5359 203.551C103.448 204.792 119.896 200.866 134.394 198.56C148.774 196.266 163.13 193.807 177.403 191.146C177.959 191.122 178.373 190.933 178.633 190.649C179.236 190.093 179.141 189.207 178.55 188.627C178.479 188.556 178.396 188.497 178.313 188.438C178.302 188.438 178.29 188.414 178.278 188.414C178.195 188.355 178.101 188.308 177.994 188.261C177.994 188.261 177.97 188.261 177.959 188.249C177.864 188.213 177.758 188.178 177.639 188.154C177.616 188.154 177.592 188.142 177.568 188.13C177.497 188.119 177.438 188.107 177.367 188.107C177.296 188.107 177.237 188.083 177.166 188.083C164.702 187.421 151.364 191.56 139.254 193.594C129.203 195.273 119.128 196.869 108.994 198.206C102.49 199.069 95.8084 200.062 89.2099 199.495C58.1567 196.798 26.938 195.025 -4.18615 193.026C-5.49876 192.943 -6.31471 194.067 -6.05455 194.977C-5.92447 195.415 -5.80622 195.864 -5.67614 196.302L-5.69979 196.29Z" fill="#E8AF70"/>
</g>
<path opacity="0.18" d="M140.189 204H4.77741L0 214.288V220.508L6.84684 228.384L0 238.731V252.401L7.67461 262.346L0 272.516L4.73011 277.246H140.189V204Z" fill="white"/>
</svg>
