<svg width="354" height="350" viewBox="0 0 354 350" fill="none" xmlns="http://www.w3.org/2000/svg">
<g filter="url(#filter0_d_4_49)">
<path d="M311.718 45.2812L317.56 37.5475L314.012 33.9999L311.328 37.5475H38.365V54.7178L49.599 62.7353L41.9126 77.1267V90.3828L46.4062 97.4189L43.7573 102.516H38.365L41.9126 106.063H312.782L317.56 95.7633V89.5551L310.713 81.6794L317.56 71.3205V57.6505L309.885 47.7054L311.718 45.2812Z" fill="#C99663"/>
<path d="M309.235 102.516H38.365L42.8586 93.8713L38.365 86.8353V73.5791L46.9974 57.414L38.365 50.7918V33.9999H314.012L306.338 44.1578L314.012 54.1029V67.7729L307.165 78.1318L314.012 86.0075V92.2158L309.235 102.516Z" fill="#F4C790"/>
<mask id="mask0_4_49" style="mask-type:luminance" maskUnits="userSpaceOnUse" x="38" y="34" width="277" height="69">
<path d="M309.235 102.516H38.365L42.8586 93.8713L38.365 86.8353V73.5791L46.9974 57.414L38.365 50.7918V33.9999H314.012L306.338 44.1578L314.012 54.1029V67.7729L307.165 78.1318L314.012 86.0075V92.2158L309.235 102.516Z" fill="white"/>
</mask>
<g mask="url(#mask0_4_49)">
<path d="M35.8936 34.3309C36.0828 35.0167 36.6623 35.3478 37.3127 35.4188C37.3245 35.4188 37.3481 35.4188 37.3718 35.4188C37.4073 35.4188 37.4427 35.4188 37.4782 35.4188C37.5728 35.4188 37.6674 35.4424 37.762 35.4424C81.1253 36.0928 124.595 36.1519 167.935 34.8866C195.133 34.0943 222 31.1144 249.103 29.246C272.281 27.6496 295.482 26.3606 318.707 25.2963C319.83 25.249 320.552 24.6341 320.646 23.7472C320.682 23.4161 320.717 23.0732 320.753 22.7421C320.836 21.938 319.807 21.1575 318.825 21.193C296.286 22.1863 273.759 23.4871 251.267 25.0007C223.987 26.8336 196.942 29.8727 169.555 30.7005C125.553 32.0249 81.4328 31.6702 37.4191 31.0198C36.1065 30.9961 35.2905 32.0131 35.5507 32.9709C35.6689 33.4085 35.7872 33.846 35.9054 34.2836L35.8936 34.3309Z" fill="#E8AF70"/>
<path d="M35.8698 43.2472C35.9881 43.6374 36.2364 43.8976 36.5557 44.0868C36.8513 44.276 37.2416 44.3942 37.7382 44.3824C79.0085 43.7557 120.291 42.8451 161.537 41.6389C185.826 40.9294 210.198 39.0255 234.475 38.7181C262.714 38.3515 292.467 44.1222 318.624 52.5418C319.807 52.9202 321.072 51.9742 321.072 51.0518C321.072 50.6025 321.072 50.165 321.072 49.7156C321.072 48.9706 320.469 48.4858 319.653 48.2256C294.666 40.1135 266.924 35.3715 240.01 34.662C227.64 34.3309 215.141 35.5962 202.784 36.1165C189.8 36.6605 176.815 37.0625 163.831 37.4291C121.674 38.6235 79.5051 39.3093 37.3362 40.0307C36.0709 40.0543 35.1603 41.0004 35.4678 41.9819C35.6097 42.4076 35.7398 42.8451 35.8817 43.2708L35.8698 43.2472Z" fill="#E8AF70"/>
<path d="M37.703 57.6621C67.9994 55.7819 98.4376 54.7058 128.616 51.8796C150.232 49.8575 171.695 50.094 193.442 50.7798C235.41 52.1043 276.964 56.2786 318.542 60.8432C320.067 61.0087 321.179 60.1928 320.918 58.9393C320.824 58.4663 320.717 57.9933 320.623 57.5202C320.528 57.0591 319.866 56.5033 319.275 56.4441C278.336 52.0333 237.29 48.1901 195.996 46.7711C174.048 46.0143 151.935 45.352 130.118 47.658C99.5255 50.8744 68.4842 51.6904 37.7385 53.5943C36.6624 53.6652 35.8346 54.2446 35.8109 55.1434C35.7991 55.4745 35.7873 55.8056 35.7755 56.1485C35.7636 56.5151 35.8819 56.8226 36.0948 57.0472C36.3786 57.4611 36.9107 57.7331 37.703 57.6858V57.6621Z" fill="#E8AF70"/>
<path d="M311.399 80.887C302.53 80.142 293.756 78.4628 285.1 76.8073C265.257 73.0114 245.733 68.2103 226.127 63.7049C211.948 60.4411 197.285 56.456 182.503 55.3799C173.386 54.7177 164.091 55.1789 154.986 55.5691C115.549 57.2838 76.135 61.3635 37.0288 65.7625C35.8936 65.8926 35.5152 66.5903 35.6689 67.288C35.6689 67.4062 35.6689 67.5363 35.6807 67.6664C35.7398 67.9975 35.799 68.3286 35.8581 68.6479C36.0118 69.5584 37.3008 69.8304 38.235 69.724C75.1298 65.5969 112.238 61.9548 149.404 59.9445C158.64 59.4478 167.923 59.0694 177.182 59.2586C190.32 59.5306 203.269 62.9244 215.815 65.7388C235.232 70.0787 254.508 74.797 274.007 78.9004C288.836 82.0222 304.186 85.2742 319.582 85.7236C320.966 85.759 322.113 84.3518 321.249 83.4058C318.648 80.5204 315.727 81.2654 311.375 80.8988L311.399 80.887Z" fill="#E8AF70"/>
<path d="M175.077 76.819C179.996 75.5419 185.259 74.2647 189.74 72.1362C190.911 71.5804 192.744 70.5043 192.614 69.2153C192.129 64.568 179.843 65.3485 175.822 65.2657C150.575 64.7099 125.127 66.46 99.9629 67.9145C79.1504 69.1207 58.3497 70.5043 37.5727 72.0652C36.5321 72.148 35.6215 72.7038 35.6452 73.6143C35.6452 73.9454 35.657 74.2766 35.6688 74.6195C35.6807 75.4 36.5439 76.2395 37.6082 76.1686C79.4342 73.0231 121.509 69.984 163.524 69.3572C168.112 69.2863 172.712 69.2863 177.3 69.4045C179.062 69.4518 180.812 69.5346 182.574 69.641C183.331 69.6883 183.899 69.7711 184.348 69.8302C182.208 70.5752 179.346 71.3321 178.081 71.6986C156.594 78.0252 134.079 82.365 111.906 86.835C86.9787 91.8607 61.9091 96.4608 36.8159 100.907C35.7634 101.096 35.3614 101.759 35.4441 102.421C35.3259 103.095 35.7161 103.769 36.8159 103.887C45.9568 104.892 56.5877 101.203 65.3858 99.5353C87.8301 95.2782 110.263 90.962 132.601 86.3856C146.85 83.4648 161.1 80.4493 175.089 76.819H175.077Z" fill="#E8AF70"/>
<path d="M37.6437 97.4898C49.9539 95.0419 62.193 92.3221 74.2903 89.2949C78.2281 88.3134 98.1537 84.955 98.1537 79.9765C98.1537 72.0418 44.3605 79.6218 36.9106 80.4141C36.1419 80.4969 35.3969 81.301 35.4915 81.9041C35.5388 82.2352 35.598 82.5545 35.6453 82.8856C35.7635 83.6306 36.4376 84.5529 37.5728 84.4347C48.3929 83.2758 59.2249 82.2825 70.0923 81.502C74.5504 81.1827 79.0204 80.9344 83.4903 80.7807C85.406 80.7097 87.3336 80.6979 89.2493 80.7215C89.3912 80.7215 89.5212 80.7334 89.6631 80.7334C83.8096 83.2994 75.863 84.4583 69.9149 85.8892C58.9056 88.538 47.7662 90.8795 36.6149 93.1026C35.9527 93.2327 35.5625 93.552 35.3733 93.9304C35.3733 93.9422 35.3615 93.9659 35.3496 93.9777C35.326 94.025 35.3023 94.0723 35.2905 94.1196C35.2314 94.2615 35.1959 94.4152 35.1959 94.5808C35.1959 95.0419 35.1959 95.515 35.1841 95.9761C35.1841 97.0049 36.4257 97.7026 37.6319 97.4661L37.6437 97.4898Z" fill="#E8AF70"/>
<path d="M307.509 89.1646C296.866 88.1003 286.27 86.6458 275.722 85.0967C255.726 82.164 235.398 75.5892 214.869 77.9897C202.476 79.4442 190.438 82.3059 178.376 84.9193C163.749 88.0885 149.026 90.962 134.292 93.7765C121.71 96.177 109.116 98.4947 96.4982 100.789C92.1229 101.581 86.7542 101.924 82.5208 103.331C82.1069 103.379 81.7876 103.52 81.5511 103.733C80.3213 104.537 81.0899 106.595 82.8401 106.418C82.8755 106.418 82.911 106.418 82.9465 106.418C95.091 107.068 107.366 103.284 119.085 101.025C147.122 95.6094 174.912 89.4248 202.926 83.9851C214.077 81.8211 225.252 80.6267 236.604 82.3887C246.656 83.9497 256.553 86.3502 266.617 87.9584C283.775 90.7019 301.915 94.0366 319.499 94.2849C321.332 94.3086 321.853 92.6412 320.871 91.6479C318.045 88.8335 311.742 89.6021 307.497 89.1764L307.509 89.1646Z" fill="#E8AF70"/>
<path d="M320.173 101.108C319.972 100.411 319.144 100.032 318.305 99.973C287.524 98.0573 256.66 96.4018 225.938 93.8475C211.026 92.6059 194.577 96.5319 180.079 98.8378C165.7 101.132 151.344 103.592 137.071 106.252C136.515 106.276 136.101 106.465 135.841 106.749C135.238 107.305 135.332 108.192 135.924 108.771C135.995 108.842 136.077 108.901 136.16 108.96C136.172 108.96 136.184 108.984 136.196 108.984C136.278 109.043 136.373 109.09 136.479 109.138C136.479 109.138 136.503 109.138 136.515 109.149C136.609 109.185 136.716 109.22 136.834 109.244C136.858 109.244 136.881 109.256 136.905 109.268C136.976 109.28 137.035 109.291 137.106 109.291C137.177 109.291 137.236 109.315 137.307 109.315C149.771 109.977 163.11 105.838 175.219 103.804C185.271 102.125 195.346 100.529 205.48 99.1926C211.984 98.3293 218.665 97.336 225.264 97.9036C256.317 100.6 287.535 102.374 318.671 104.372C319.984 104.455 320.8 103.331 320.54 102.421C320.41 101.983 320.292 101.534 320.161 101.096L320.173 101.108Z" fill="#E8AF70"/>
</g>
<path opacity="0.18" d="M176.189 33.9999H38.365V37.5475V50.7918V54.7178L45.6612 59.9209L38.365 73.5791V86.8353L42.8586 93.8713L38.365 102.516L41.9126 106.063H176.189V33.9999Z" fill="white"/>
<path d="M316.85 106.678L312.12 101.948V106.678H41.2033V117.297L46.2526 123.931L41.2033 134.964V170.464H36.4731L41.2033 175.194H316.85V149.225L312.369 141.362L316.85 131.003V106.678Z" fill="#C99663"/>
<path d="M312.12 170.464H36.4731V130.234L41.5225 119.201L36.4731 112.567V101.948H312.12V126.273L307.639 136.631L312.12 144.495V170.464Z" fill="#F4C790"/>
<mask id="mask1_4_49" style="mask-type:luminance" maskUnits="userSpaceOnUse" x="36" y="101" width="277" height="70">
<path d="M312.12 170.464H36.4731V130.234L41.5225 119.201L36.4731 112.567V101.948H312.12V126.273L307.639 136.631L312.12 144.495V170.464Z" fill="white"/>
</mask>
<g mask="url(#mask1_4_49)">
<path d="M328.357 104.715C328.132 104.36 327.907 104.017 327.682 103.662C327.41 103.237 326.937 102.894 326.405 102.929C241.157 108.286 155.483 109.457 70.1043 109.339C55.5237 109.315 40.955 109.22 26.3744 109.078C25.8895 109.078 25.5348 109.256 25.2983 109.54C24.9554 109.823 24.6006 110.095 24.2577 110.379C23.2052 111.231 24.1158 112.886 25.2983 112.898C124.808 113.915 224.554 112.685 323.934 107.127C324.986 107.068 326.027 107.009 327.079 106.95C328.144 106.879 328.995 105.732 328.357 104.727V104.715Z" fill="#E8AF70"/>
<path d="M326.015 115.949C325.743 115.523 325.27 115.18 324.738 115.216C224.613 121.258 123.945 123.517 23.6546 122.015C22.8387 122.003 22.3775 122.535 22.2592 123.162C22.2238 123.269 22.2001 123.375 22.1765 123.493C22.1173 123.895 22.07 124.297 22.0109 124.699C21.9045 125.504 22.7677 126.166 23.4891 126.178C124.051 127.679 225.004 125.385 325.4 119.236C326.465 119.165 327.316 118.018 326.677 117.013C326.453 116.658 326.228 116.304 326.003 115.961L326.015 115.949Z" fill="#E8AF70"/>
<path d="M321.888 138.784C294.063 135.78 265.553 136.49 237.621 136.147C195.902 135.626 154.17 135.52 112.451 135.496C82.5564 135.484 52.6739 135.532 22.7796 135.674C22.7678 135.674 22.7559 135.674 22.7323 135.674C22.5313 135.674 22.3302 135.709 22.141 135.792C22.1056 135.804 22.0701 135.827 22.0346 135.851C21.9991 135.875 21.9637 135.898 21.9164 135.922C21.8572 135.957 21.8099 136.005 21.7508 136.052C21.7272 136.076 21.7035 136.087 21.6798 136.111C21.3251 136.466 20.9703 136.832 20.6156 137.187C19.705 138.098 20.3672 139.718 21.6562 139.706C82.4026 139.399 143.149 139.399 203.884 139.848C228.338 140.025 252.805 140.285 277.26 140.829C292.088 141.16 307.095 141.196 321.853 142.792C322.669 142.875 323.307 142.047 323.331 141.314C323.331 140.971 323.355 140.617 323.355 140.274C323.378 139.399 322.657 138.878 321.876 138.795L321.888 138.784Z" fill="#E8AF70"/>
<path d="M318.613 162.339C247.957 156.864 177.265 151.685 106.562 146.943C78.3939 145.051 50.2143 143.194 22.011 141.811C21.1832 141.775 20.7102 142.307 20.6038 142.946C20.5447 143.171 20.521 143.419 20.5801 143.691C20.6511 144.046 20.7339 144.4 20.8048 144.755C20.9467 145.417 21.5971 145.808 22.2357 145.843C101.654 149.757 181.014 156.308 260.314 162.056C279.79 163.463 299.255 164.87 318.719 166.36C319.464 166.419 320.28 165.639 320.197 164.882C320.162 164.527 320.114 164.184 320.079 163.829C319.984 162.978 319.476 162.422 318.601 162.351L318.613 162.339Z" fill="#E8AF70"/>
<path d="M316.484 181.875C290.031 178.303 263.341 176.151 236.77 173.573C195.712 169.6 154.655 165.769 113.586 161.961C82.7337 159.111 51.8816 156.261 21.0294 153.482C20.7693 153.364 20.4736 153.34 20.1544 153.447C19.7996 153.494 19.5395 153.683 19.3621 153.932C19.0901 154.121 18.8063 154.322 18.5343 154.511C17.2926 155.374 17.7893 157.136 19.2793 157.266C79.3635 162.682 139.448 168.276 199.508 173.987C238.165 177.665 277.07 180.55 315.562 185.753C316.271 185.848 317.265 185.588 317.383 184.725C317.43 184.382 317.477 184.039 317.525 183.708C317.619 182.998 317.359 182.005 316.496 181.887L316.484 181.875Z" fill="#E8AF70"/>
</g>
<path opacity="0.18" d="M176.662 101.948H36.4731V112.567L41.5225 119.201L36.4731 130.234V170.464L41.2033 175.194H176.662V101.948Z" fill="white"/>
<path d="M316.377 174.721L311.647 169.991L309.188 174.721H45.5075L40.7301 185.009V191.229L47.5769 199.104L40.7301 209.452V223.122L48.4047 233.067L44.3013 238.506H36L40.7301 243.236H316.377V226.444L307.745 219.81L316.377 203.657V190.401L311.884 183.353L316.377 174.721Z" fill="#C99663"/>
<path d="M40.7774 169.991H311.647L307.154 178.623L311.647 185.671V198.927L303.015 215.08L311.647 221.714V238.506H36L43.6746 228.337L36 218.391V204.721L42.8468 194.374L36 186.499V180.279L40.7774 169.991Z" fill="#F4C790"/>
<mask id="mask2_4_49" style="mask-type:luminance" maskUnits="userSpaceOnUse" x="36" y="169" width="276" height="70">
<path d="M40.7774 169.991H311.647L307.154 178.623L311.647 185.671V198.927L303.015 215.08L311.647 221.714V238.506H36L43.6746 228.337L36 218.391V204.721L42.8468 194.374L36 186.499V180.279L40.7774 169.991Z" fill="white"/>
</mask>
<g mask="url(#mask2_4_49)">
<path d="M314.568 229.058C314.379 228.372 313.8 228.041 313.149 227.97C313.137 227.97 313.114 227.97 313.09 227.97C313.055 227.97 313.019 227.97 312.984 227.97C312.889 227.97 312.794 227.946 312.7 227.946C269.336 227.296 225.867 227.237 182.527 228.502C155.329 229.294 128.462 232.274 101.358 234.143C78.1809 235.739 54.9797 237.028 31.7548 238.092C30.6314 238.14 29.9101 238.755 29.8155 239.63C29.78 239.961 29.7445 240.304 29.709 240.635C29.6263 241.439 30.6551 242.22 31.6366 242.172C54.1755 241.179 76.7027 239.878 99.1944 238.364C126.475 236.532 153.52 233.492 180.907 232.665C224.909 231.34 269.029 231.695 313.043 232.345C314.355 232.369 315.171 231.352 314.911 230.394C314.793 229.957 314.675 229.519 314.556 229.082L314.568 229.058Z" fill="#E8AF70"/>
<path d="M314.604 220.142C314.485 219.751 314.237 219.491 313.918 219.302C313.622 219.113 313.232 218.995 312.735 219.007C271.465 219.633 230.195 220.544 188.936 221.75C164.647 222.459 140.275 224.363 115.998 224.671C87.7594 225.037 58.007 219.267 31.8494 210.847C30.6669 210.469 29.4016 211.415 29.4016 212.337C29.4016 212.786 29.4016 213.224 29.4016 213.673C29.4016 214.418 30.0047 214.903 30.8206 215.163C55.8193 223.275 83.5496 228.017 110.464 228.727C122.833 229.058 135.332 227.793 147.69 227.272C160.674 226.728 173.658 226.326 186.642 225.96C228.799 224.765 270.968 224.08 313.137 223.358C314.414 223.335 315.313 222.389 315.006 221.407C314.864 220.981 314.734 220.544 314.592 220.118L314.604 220.142Z" fill="#E8AF70"/>
<path d="M312.771 205.715C282.474 207.595 252.036 208.671 221.858 211.498C200.241 213.52 178.779 213.283 157.032 212.597C115.064 211.273 73.51 207.099 31.9323 202.534C30.4069 202.368 29.2953 203.184 29.5554 204.438C29.65 204.911 29.7565 205.384 29.8511 205.857C29.9457 206.318 30.6079 206.874 31.1992 206.933C72.1383 211.344 113.184 215.187 154.478 216.606C176.425 217.363 198.539 218.025 220.356 215.719C250.948 212.503 281.99 211.699 312.735 209.783C313.811 209.712 314.639 209.132 314.663 208.246C314.675 207.914 314.687 207.583 314.698 207.24C314.71 206.874 314.592 206.566 314.379 206.342C314.095 205.928 313.563 205.656 312.771 205.703V205.715Z" fill="#E8AF70"/>
<path d="M39.0629 182.502C47.9318 183.247 56.7062 184.926 65.3623 186.582C85.2051 190.377 104.729 195.179 124.335 199.684C138.513 202.948 153.177 206.933 167.958 208.009C177.076 208.671 186.37 208.21 195.476 207.82C234.913 206.105 274.327 202.025 313.433 197.626C314.568 197.496 314.947 196.799 314.793 196.101C314.793 195.983 314.793 195.853 314.781 195.722C314.722 195.391 314.663 195.06 314.604 194.741C314.45 193.83 313.161 193.558 312.227 193.665C275.332 197.792 238.224 201.434 201.057 203.444C191.822 203.941 182.539 204.319 173.28 204.13C160.142 203.858 147.193 200.464 134.647 197.662C115.229 193.322 95.9543 188.604 76.4544 184.5C61.6255 181.378 46.2763 178.126 30.8798 177.677C29.508 177.642 28.3492 179.049 29.2124 179.995C31.814 182.88 34.7348 182.135 39.0865 182.502H39.0629Z" fill="#E8AF70"/>
<path d="M175.396 186.57C170.477 187.847 165.215 189.124 160.733 191.252C159.562 191.808 157.73 192.884 157.86 194.173C158.344 198.821 170.631 198.028 174.651 198.123C199.898 198.679 225.346 196.929 250.511 195.474C271.323 194.268 292.124 192.884 312.901 191.323C313.941 191.241 314.852 190.685 314.828 189.786C314.828 189.455 314.817 189.124 314.805 188.781C314.793 188.001 313.93 187.161 312.877 187.244C271.051 190.389 228.977 193.428 186.962 194.055C182.373 194.126 177.773 194.126 173.185 194.008C171.423 193.96 169.673 193.878 167.911 193.771C167.154 193.724 166.587 193.641 166.137 193.582C168.278 192.849 171.139 192.08 172.405 191.714C193.891 185.387 216.407 181.047 238.579 176.577C263.507 171.552 288.576 166.952 313.669 162.505C314.722 162.316 315.124 161.654 315.041 160.992C315.159 160.318 314.769 159.644 313.669 159.525C304.529 158.52 293.898 162.21 285.1 163.877C262.655 168.134 240.223 172.45 217.885 177.027C203.635 179.948 189.386 182.963 175.396 186.593V186.57Z" fill="#E8AF70"/>
<path d="M312.83 165.899C300.52 168.347 288.28 171.067 276.183 174.094C272.245 175.076 252.32 178.434 252.32 183.412C252.32 191.347 306.113 183.767 313.563 182.975C314.332 182.892 315.077 182.088 314.982 181.485C314.935 181.154 314.876 180.834 314.828 180.503C314.71 179.758 314.036 178.836 312.901 178.954C302.081 180.113 291.249 181.106 280.381 181.887C275.923 182.206 271.453 182.455 266.983 182.608C265.067 182.679 263.14 182.691 261.224 182.667C261.082 182.667 260.952 182.656 260.81 182.656C266.664 180.089 274.61 178.931 280.559 177.5C291.568 174.851 302.707 172.509 313.859 170.286C314.521 170.156 314.911 169.837 315.1 169.459C315.1 169.447 315.112 169.423 315.124 169.411C315.148 169.364 315.171 169.317 315.183 169.269C315.242 169.127 315.278 168.974 315.278 168.808C315.278 168.347 315.278 167.874 315.289 167.413C315.289 166.384 314.048 165.686 312.842 165.923L312.83 165.899Z" fill="#E8AF70"/>
<path d="M42.9652 174.224C53.608 175.289 64.2034 176.743 74.7516 178.292C94.7481 181.225 115.076 187.811 135.604 185.399C147.997 183.945 160.035 181.083 172.097 178.47C186.725 175.3 201.448 172.427 216.182 169.612C228.764 167.212 241.358 164.894 253.975 162.6C258.351 161.808 263.72 161.465 267.953 160.058C268.367 160.01 268.686 159.868 268.923 159.655C270.152 158.84 269.384 156.794 267.634 156.971C267.598 156.971 267.563 156.971 267.527 156.971C255.383 156.321 243.108 160.105 231.389 162.363C203.351 167.779 175.562 173.964 147.548 179.404C136.397 181.568 125.222 182.762 113.87 181C103.818 179.439 93.9203 177.039 83.857 175.43C66.6986 172.687 48.5586 169.352 30.9744 169.104C29.1415 169.08 28.6212 170.748 29.6026 171.741C32.4289 174.555 38.7318 173.787 42.977 174.212L42.9652 174.224Z" fill="#E8AF70"/>
<path d="M30.3002 162.28C30.5013 162.978 31.329 163.357 32.1686 163.416C62.9616 165.331 93.8138 166.987 124.536 169.541C139.448 170.783 155.897 166.857 170.394 164.551C184.774 162.257 199.13 159.797 213.403 157.136C213.959 157.113 214.373 156.924 214.633 156.64C215.236 156.084 215.141 155.197 214.55 154.618C214.479 154.547 214.396 154.488 214.313 154.429C214.302 154.429 214.29 154.405 214.278 154.405C214.195 154.346 214.101 154.298 213.994 154.251C213.994 154.251 213.97 154.251 213.959 154.239C213.864 154.204 213.758 154.168 213.639 154.145C213.616 154.145 213.592 154.133 213.568 154.121C213.497 154.109 213.438 154.097 213.367 154.097C213.296 154.097 213.237 154.074 213.166 154.074C200.702 153.412 187.364 157.55 175.255 159.584C165.203 161.264 155.128 162.86 144.994 164.196C138.49 165.059 131.808 166.053 125.21 165.485C94.1567 162.789 62.938 161.015 31.8139 159.017C30.5013 158.934 29.6853 160.057 29.9455 160.968C30.0755 161.405 30.1938 161.855 30.3239 162.292L30.3002 162.28Z" fill="#E8AF70"/>
</g>
<path opacity="0.18" d="M176.189 169.991H40.7774L36 180.279V186.499L42.8468 194.374L36 204.721V218.391L43.6746 228.337L36 238.506L40.7301 243.236H176.189V169.991Z" fill="white"/>
<path d="M316.377 242.73L311.647 238L309.188 242.73H45.5075L40.7301 253.018V259.238L47.5769 267.114L40.7301 277.461V291.131L48.4047 301.076L44.3013 306.516H36L40.7301 311.246H316.377V294.454L307.745 287.82L316.377 271.667V258.41L311.884 251.363L316.377 242.73Z" fill="#C99663"/>
<path d="M40.7774 238H311.647L307.154 246.632L311.647 253.68V266.936L303.015 283.09L311.647 289.724V306.516H36L43.6746 296.346L36 286.401V272.731L42.8468 262.384L36 254.508V248.288L40.7774 238Z" fill="#F4C790"/>
<mask id="mask3_4_49" style="mask-type:luminance" maskUnits="userSpaceOnUse" x="36" y="238" width="276" height="69">
<path d="M40.7774 238H311.647L307.154 246.632L311.647 253.68V266.936L303.015 283.09L311.647 289.724V306.516H36L43.6746 296.346L36 286.401V272.731L42.8468 262.384L36 254.508V248.288L40.7774 238Z" fill="white"/>
</mask>
<g mask="url(#mask3_4_49)">
<path d="M314.568 297.067C314.379 296.381 313.8 296.05 313.149 295.979C313.137 295.979 313.114 295.979 313.09 295.979C313.055 295.979 313.019 295.979 312.984 295.979C312.889 295.979 312.794 295.956 312.7 295.956C269.336 295.305 225.867 295.246 182.527 296.512C155.329 297.304 128.462 300.284 101.358 302.152C78.1809 303.749 54.9797 305.038 31.7548 306.102C30.6314 306.149 29.9101 306.764 29.8155 307.639C29.78 307.97 29.7445 308.313 29.709 308.644C29.6263 309.448 30.6551 310.229 31.6366 310.182C54.1755 309.188 76.7027 307.887 99.1944 306.374C126.475 304.541 153.52 301.502 180.907 300.674C224.909 299.35 269.029 299.704 313.043 300.355C314.355 300.378 315.171 299.361 314.911 298.404C314.793 297.966 314.675 297.529 314.556 297.091L314.568 297.067Z" fill="#E8AF70"/>
<path d="M314.604 288.151C314.485 287.761 314.237 287.501 313.918 287.312C313.622 287.122 313.232 287.004 312.735 287.016C271.465 287.643 230.195 288.553 188.936 289.759C164.647 290.469 140.275 292.373 115.998 292.68C87.7594 293.047 58.007 287.276 31.8494 278.856C30.6669 278.478 29.4016 279.424 29.4016 280.346C29.4016 280.796 29.4016 281.233 29.4016 281.683C29.4016 282.428 30.0047 282.913 30.8206 283.173C55.8193 291.285 83.5496 296.027 110.464 296.736C122.833 297.067 135.332 295.802 147.69 295.282C160.674 294.738 173.658 294.336 186.642 293.969C228.799 292.775 270.968 292.089 313.137 291.368C314.414 291.344 315.313 290.398 315.006 289.416C314.864 288.991 314.734 288.553 314.592 288.127L314.604 288.151Z" fill="#E8AF70"/>
<path d="M312.771 273.724C282.474 275.605 252.036 276.681 221.858 279.507C200.241 281.529 178.779 281.293 157.032 280.607C115.064 279.282 73.51 275.108 31.9323 270.543C30.4069 270.378 29.2953 271.194 29.5554 272.447C29.65 272.92 29.7565 273.393 29.8511 273.866C29.9457 274.327 30.6079 274.883 31.1992 274.942C72.1383 279.353 113.184 283.196 154.478 284.615C176.425 285.372 198.539 286.035 220.356 283.729C250.948 280.512 281.99 279.708 312.735 277.792C313.811 277.721 314.639 277.142 314.663 276.255C314.675 275.924 314.687 275.593 314.698 275.25C314.71 274.883 314.592 274.576 314.379 274.351C314.095 273.937 313.563 273.665 312.771 273.713V273.724Z" fill="#E8AF70"/>
<path d="M39.0629 250.511C47.9318 251.256 56.7062 252.935 65.3623 254.591C85.2051 258.387 104.729 263.188 124.335 267.693C138.513 270.957 153.177 274.942 167.958 276.018C177.076 276.681 186.37 276.219 195.476 275.829C234.913 274.114 274.327 270.035 313.433 265.636C314.568 265.506 314.947 264.808 314.793 264.11C314.793 263.992 314.793 263.862 314.781 263.732C314.722 263.401 314.663 263.07 314.604 262.75C314.45 261.84 313.161 261.568 312.227 261.674C275.332 265.801 238.224 269.443 201.057 271.454C191.822 271.95 182.539 272.329 173.28 272.14C160.142 271.868 147.193 268.474 134.647 265.671C115.229 261.331 95.9543 256.613 76.4544 252.51C61.6255 249.388 46.2763 246.136 30.8798 245.686C29.508 245.651 28.3492 247.058 29.2124 248.004C31.814 250.89 34.7348 250.145 39.0865 250.511H39.0629Z" fill="#E8AF70"/>
<path d="M175.396 254.579C170.477 255.856 165.215 257.133 160.733 259.262C159.562 259.818 157.73 260.894 157.86 262.183C158.344 266.83 170.631 266.038 174.651 266.132C199.898 266.688 225.346 264.938 250.511 263.483C271.323 262.277 292.124 260.894 312.901 259.333C313.941 259.25 314.852 258.694 314.828 257.796C314.828 257.464 314.817 257.133 314.805 256.79C314.793 256.01 313.93 255.17 312.877 255.253C271.051 258.399 228.977 261.438 186.962 262.064C182.373 262.135 177.773 262.135 173.185 262.017C171.423 261.97 169.673 261.887 167.911 261.781C167.154 261.733 166.587 261.651 166.137 261.591C168.278 260.858 171.139 260.09 172.405 259.723C193.891 253.397 216.407 249.057 238.579 244.587C263.507 239.561 288.576 234.961 313.669 230.515C314.722 230.325 315.124 229.663 315.041 229.001C315.159 228.327 314.769 227.653 313.669 227.535C304.529 226.529 293.898 230.219 285.1 231.886C262.655 236.143 240.223 240.46 217.885 245.036C203.635 247.957 189.386 250.972 175.396 254.603V254.579Z" fill="#E8AF70"/>
<path d="M312.83 233.909C300.52 236.356 288.28 239.076 276.183 242.103C272.245 243.085 252.32 246.443 252.32 251.422C252.32 259.357 306.113 251.777 313.563 250.984C314.332 250.901 315.077 250.097 314.982 249.494C314.935 249.163 314.876 248.844 314.828 248.513C314.71 247.768 314.036 246.845 312.901 246.964C302.081 248.123 291.249 249.116 280.381 249.896C275.923 250.216 271.453 250.464 266.983 250.618C265.067 250.689 263.14 250.7 261.224 250.677C261.082 250.677 260.952 250.665 260.81 250.665C266.664 248.099 274.61 246.94 280.559 245.509C291.568 242.86 302.707 240.519 313.859 238.296C314.521 238.166 314.911 237.846 315.1 237.468C315.1 237.456 315.112 237.432 315.124 237.421C315.148 237.373 315.171 237.326 315.183 237.279C315.242 237.137 315.278 236.983 315.278 236.818C315.278 236.356 315.278 235.883 315.289 235.422C315.289 234.393 314.048 233.696 312.842 233.932L312.83 233.909Z" fill="#E8AF70"/>
<path d="M42.9652 242.234C53.608 243.298 64.2034 244.752 74.7516 246.301C94.7481 249.234 115.076 255.821 135.604 253.409C147.997 251.954 160.035 249.092 172.097 246.479C186.725 243.31 201.448 240.436 216.182 237.622C228.764 235.221 241.358 232.903 253.975 230.609C258.351 229.817 263.72 229.474 267.953 228.067C268.367 228.02 268.686 227.878 268.923 227.665C270.152 226.849 269.384 224.803 267.634 224.981C267.598 224.981 267.563 224.981 267.527 224.981C255.383 224.33 243.108 228.114 231.389 230.373C203.351 235.789 175.562 241.973 147.548 247.413C136.397 249.577 125.222 250.771 113.87 249.009C103.818 247.449 93.9203 245.048 83.857 243.44C66.6986 240.696 48.5586 237.362 30.9744 237.113C29.1415 237.09 28.6212 238.757 29.6026 239.75C32.4289 242.565 38.7318 241.796 42.977 242.222L42.9652 242.234Z" fill="#E8AF70"/>
<path d="M30.3002 230.29C30.5013 230.988 31.329 231.366 32.1686 231.425C62.9616 233.341 93.8138 234.996 124.536 237.551C139.448 238.792 155.897 234.866 170.394 232.56C184.774 230.266 199.13 227.807 213.403 225.146C213.959 225.122 214.373 224.933 214.633 224.649C215.236 224.093 215.141 223.207 214.55 222.627C214.479 222.556 214.396 222.497 214.313 222.438C214.302 222.438 214.29 222.414 214.278 222.414C214.195 222.355 214.101 222.308 213.994 222.261C213.994 222.261 213.97 222.261 213.959 222.249C213.864 222.213 213.758 222.178 213.639 222.154C213.616 222.154 213.592 222.142 213.568 222.13C213.497 222.119 213.438 222.107 213.367 222.107C213.296 222.107 213.237 222.083 213.166 222.083C200.702 221.421 187.364 225.56 175.255 227.594C165.203 229.273 155.128 230.869 144.994 232.206C138.49 233.069 131.808 234.062 125.21 233.495C94.1567 230.798 62.938 229.025 31.8139 227.026C30.5013 226.943 29.6853 228.067 29.9455 228.977C30.0755 229.415 30.1938 229.864 30.3239 230.302L30.3002 230.29Z" fill="#E8AF70"/>
</g>
<path opacity="0.18" d="M176.189 238H40.7774L36 248.288V254.508L42.8468 262.384L36 272.731V286.401L43.6746 296.346L36 306.516L40.7301 311.246H176.189V238Z" fill="white"/>
</g>
<defs>
<filter id="filter0_d_4_49" x="0.524166" y="0.88913" width="352.511" height="348.198" filterUnits="userSpaceOnUse" color-interpolation-filters="sRGB">
<feFlood flood-opacity="0" result="BackgroundImageFix"/>
<feColorMatrix in="SourceAlpha" type="matrix" values="0 0 0 0 0 0 0 0 0 0 0 0 0 0 0 0 0 0 127 0" result="hardAlpha"/>
<feOffset dy="2.36506"/>
<feGaussianBlur stdDeviation="17.7379"/>
<feComposite in2="hardAlpha" operator="out"/>
<feColorMatrix type="matrix" values="0 0 0 0 0 0 0 0 0 0 0 0 0 0 0 0 0 0 0.75 0"/>
<feBlend mode="normal" in2="BackgroundImageFix" result="effect1_dropShadow_4_49"/>
<feBlend mode="normal" in="SourceGraphic" in2="effect1_dropShadow_4_49" result="shape"/>
</filter>
</defs>
</svg>
