<svg width="68" height="102" viewBox="0 0 68 102" fill="none" xmlns="http://www.w3.org/2000/svg">
<g filter="url(#filter0_d_244_808)">
<path fill-rule="evenodd" clip-rule="evenodd" d="M56.385 18.5503C65.395 26.8203 64.495 40.3103 64.495 40.3103C64.495 40.3103 57.735 76.8603 53.685 86.0003C49.635 95.1403 45.575 94.2703 40.625 96.4403C35.665 98.6203 37.025 95.5703 28.015 94.2603C19.005 92.9503 20.805 97.3103 14.955 85.1203C6.17501 66.8503 -2.14499 61.9103 4.30501 43.2503C7.06501 35.2703 10.945 25.4103 11.795 21.5803C12.765 17.2203 27.655 11.7503 37.305 9.24026C47.525 6.59026 44.555 14.3303 56.385 18.5303V18.5503Z" fill="#191700"/>
<path fill-rule="evenodd" clip-rule="evenodd" d="M59.5452 9.85031C68.5552 18.1203 67.6552 31.6103 67.6552 31.6103C67.6552 31.6103 60.8952 68.1603 56.8452 77.3003C52.7952 86.4403 48.7352 85.5703 43.7852 87.7403C38.8352 89.9103 40.1852 86.8703 31.1752 85.5603C22.1652 84.2503 23.9652 88.6103 18.1152 76.4203C9.33519 58.1503 1.01517 53.2103 7.46517 34.5503C10.2252 26.5703 14.1052 16.7103 14.9552 12.8803C15.9252 8.52031 30.8152 3.05031 40.4652 0.540309C50.6852 -2.10969 47.7152 5.63031 59.5452 9.83031V9.85031Z" fill="#BAFF13"/>
<path fill-rule="evenodd" clip-rule="evenodd" d="M36.4663 12.1912L33.4693 12.0577C32.3658 12.0086 31.4314 12.8633 31.3822 13.9667L30.7191 33.4217L30.2993 57.9996C30.2502 59.1031 30.0962 62.958 31.1997 63.0072L34.1967 63.1407L47.1838 63.7192C48.2873 63.7684 49.2217 62.9137 49.2708 61.8102L49.3153 60.8112C49.3645 59.7077 48.5098 58.7733 47.4063 58.7242L36.4172 58.2347C35.3138 58.1855 34.4591 57.2511 34.5082 56.1476L35.2648 39.1645C35.3139 38.061 36.2483 37.2063 37.3518 37.2555L48.3412 37.745C49.4447 37.7942 50.3791 36.9395 50.4282 35.836L50.4727 34.837C50.5219 33.7335 49.6672 32.7991 48.5637 32.75L37.5743 32.2604C36.4708 32.2113 35.6161 31.2769 35.6653 30.1734L36.1548 19.1843C36.2039 18.0808 37.1383 17.2261 38.2418 17.2753L49.2309 17.7648C50.3344 17.8139 51.2688 16.9592 51.3179 15.8558L51.3624 14.8568C51.4116 13.7533 50.5569 12.8189 49.4534 12.7697L36.4663 12.1912Z" fill="#407B27"/>
<path fill-rule="evenodd" clip-rule="evenodd" d="M36.5842 13.6072L33.5872 13.4737C32.4837 13.4246 31.5493 14.2793 31.5002 15.3827L31.3667 18.3798L29.5421 59.3392L29.4086 62.3362C29.3594 63.4397 30.2141 64.3741 31.3176 64.4232L34.3146 64.5567L47.3017 65.1352C48.4052 65.1844 49.3396 64.3297 49.3888 63.2262L49.4333 62.2272C49.4824 61.1237 48.6277 60.1893 47.5243 60.1402L36.5352 59.6507C35.4317 59.6015 34.577 58.6671 34.6261 57.5637L35.3827 40.5805C35.4318 39.477 36.3662 38.6223 37.4697 38.6715L48.4591 39.161C49.5626 39.2102 50.497 38.3555 50.5462 37.252L50.5907 36.253C50.6398 35.1495 49.7851 34.2151 48.6816 34.166L37.6922 33.6765C36.5887 33.6273 35.734 32.6929 35.7832 31.5894L36.2727 20.6003C36.3219 19.4968 37.2563 18.6421 38.3597 18.6913L49.3488 19.1808C50.4523 19.23 51.3867 18.3753 51.4358 17.2718L51.4804 16.2728C51.5295 15.1693 50.6748 14.2349 49.5713 14.1858L36.5842 13.6072Z" fill="#191700"/>
<path fill-rule="evenodd" clip-rule="evenodd" d="M16.9553 22.5602C17.0753 25.4202 21.1153 24.6202 19.5153 22.3102C18.8353 21.3202 17.3853 21.0202 16.9553 22.5602Z" fill="#191700"/>
<path fill-rule="evenodd" clip-rule="evenodd" d="M16.8452 22.0902C16.9652 24.9502 21.0052 24.1502 19.4052 21.8402C18.7252 20.8502 17.2752 20.5502 16.8452 22.0902Z" fill="#191700"/>
<path fill-rule="evenodd" clip-rule="evenodd" d="M16.8252 15.9803C17.7852 20.9803 23.1652 19.5903 20.3052 15.5403C19.0852 13.8103 16.9852 13.2803 16.8252 15.9803Z" fill="#191700"/>
<path fill-rule="evenodd" clip-rule="evenodd" d="M17.6152 15.7603C18.5752 20.7603 23.9552 19.3703 21.0952 15.3203C19.8752 13.5903 17.7752 13.0603 17.6152 15.7603Z" fill="#191700"/>
<path fill-rule="evenodd" clip-rule="evenodd" d="M49.3754 74.8605C51.1854 77.1605 53.9853 74.3005 51.2953 73.2505C50.1453 72.8005 48.7954 73.3505 49.3754 74.8605Z" fill="#191700"/>
<path fill-rule="evenodd" clip-rule="evenodd" d="M49.0052 74.5304C50.8152 76.8304 53.6152 73.9704 50.9252 72.9204C49.7752 72.4704 48.4252 73.0204 49.0052 74.5304Z" fill="#191700"/>
<path fill-rule="evenodd" clip-rule="evenodd" d="M46.5652 84.4404C51.1652 82.2704 48.4851 77.4004 45.2651 81.1804C43.8951 82.8004 43.9052 84.9604 46.5652 84.4404Z" fill="#191700"/>
<path fill-rule="evenodd" clip-rule="evenodd" d="M46.155 83.7304C50.755 81.5604 48.075 76.6904 44.855 80.4704C43.485 82.0904 43.495 84.2504 46.155 83.7304Z" fill="#191700"/>
<path fill-rule="evenodd" clip-rule="evenodd" d="M36.8251 81.2004C38.5651 83.5504 41.445 80.7604 38.785 79.6404C37.655 79.1604 36.2851 79.6704 36.8251 81.2004Z" fill="#191700"/>
<path fill-rule="evenodd" clip-rule="evenodd" d="M36.4652 80.8703C38.2152 83.2203 41.0852 80.4304 38.4352 79.3104C37.3052 78.8304 35.9352 79.3403 36.4652 80.8703Z" fill="#191700"/>
<path fill-rule="evenodd" clip-rule="evenodd" d="M39.5151 96.8904C35.8151 98.1404 36.2752 95.4803 28.0052 94.2803C22.1052 93.4204 20.8451 95.0003 19.0251 92.7603L22.4452 84.3604C24.1352 86.1504 25.5452 84.7704 31.1552 85.5804C38.3552 86.6204 38.9352 88.7803 41.4152 88.4903C40.6852 91.7003 40.0551 94.4804 39.5151 96.8904Z" fill="#BAFF13"/>
<path fill-rule="evenodd" clip-rule="evenodd" d="M7.5251 71.5103C2.4851 62.6403 -0.214884 56.3003 4.29512 43.2703C5.51512 39.7603 6.9451 35.8803 8.2451 32.3103C7.9751 33.0703 7.70512 33.8303 7.45512 34.5703C2.85512 47.8703 5.75512 54.2003 10.9851 63.3603C9.75512 66.3103 8.5951 69.0403 7.5251 71.5203V71.5103Z" fill="#BAFF13"/>
<path fill-rule="evenodd" clip-rule="evenodd" d="M9.86517 27.8003C8.68517 35.7203 5.66516 46.5603 6.60516 50.4803C7.53516 54.4003 19.5552 75.3703 21.8052 79.8703C24.0552 84.3703 26.5351 83.4703 29.6851 83.8103C32.8351 84.1503 34.8652 84.7103 38.9252 86.5103C40.4752 87.2003 42.2851 87.5903 44.3451 87.5003C44.1551 87.5803 43.9651 87.6603 43.7651 87.7403C42.7651 88.1803 42.0251 88.4003 41.4051 88.4803C38.9351 88.7703 38.3452 86.6103 31.1452 85.5703C25.5352 84.7603 24.1151 86.1403 22.4351 84.3503C21.4151 83.2703 20.2952 81.0203 18.0852 76.4303C15.5652 71.1803 13.0752 67.0403 10.9752 63.3503C5.74515 54.1903 2.83515 47.8603 7.44515 34.5603C7.70515 33.8203 7.96516 33.0703 8.23516 32.3003C8.64516 31.1503 9.06516 29.9803 9.48516 28.8103C9.60516 28.4703 9.73516 28.1303 9.85516 27.7903L9.86517 27.8003Z" fill="#69D80D"/>
<path fill-rule="evenodd" clip-rule="evenodd" d="M44.8952 87.0902C45.0752 86.9602 45.3252 87.0002 45.4552 87.1802C45.5852 87.3602 45.5352 87.6102 45.3652 87.7302C44.8552 88.0902 43.3452 88.7102 41.8352 88.9102C40.7952 89.0502 39.7452 88.9902 38.9652 88.5402C38.1052 88.0402 36.8752 87.3502 35.3252 86.7802C33.7852 86.2202 31.9352 85.7802 29.8152 85.7802C28.9152 85.7802 28.1352 85.8302 27.4352 85.8802C24.5552 86.0702 22.9352 86.1802 21.0652 82.7002C20.6752 81.9802 19.9652 80.6802 19.0752 79.0602C17.0652 75.3902 14.1252 70.0402 11.4652 64.9402C10.6552 63.3902 9.74521 61.8502 8.88521 60.4002C7.43521 57.9602 6.12519 55.7502 5.65519 54.0802C5.23519 52.5902 4.9452 51.2302 4.8452 49.4202C4.7352 47.6202 4.81521 45.3802 5.13521 42.1202C5.15521 41.9002 5.3452 41.7402 5.5652 41.7602C5.7852 41.7802 5.94521 41.9702 5.92521 42.1902C5.61521 45.4002 5.53522 47.6002 5.64522 49.3702C5.74522 51.1102 6.02519 52.4302 6.43519 53.8602C6.87519 55.4302 8.16522 57.6002 9.58522 59.9902C10.4552 61.4602 11.3752 63.0202 12.1852 64.5702C14.8552 69.6902 17.7752 75.0202 19.7852 78.6702C20.6352 80.2202 21.3152 81.4602 21.7752 82.3202C23.3952 85.3502 24.8352 85.2502 27.3852 85.0802C28.1052 85.0302 28.9152 84.9802 29.8152 84.9802C32.0352 84.9802 33.9852 85.4402 35.5952 86.0302C37.2052 86.6202 38.4752 87.3302 39.3552 87.8502C39.9652 88.2002 40.8452 88.2402 41.7252 88.1202C43.1052 87.9402 44.4552 87.3902 44.8952 87.0802V87.0902Z" fill="#191700"/>
</g>
<defs>
<filter id="filter0_d_244_808" x="0" y="0" width="67.6802" height="101.217" filterUnits="userSpaceOnUse" color-interpolation-filters="sRGB">
<feFlood flood-opacity="0" result="BackgroundImageFix"/>
<feColorMatrix in="SourceAlpha" type="matrix" values="0 0 0 0 0 0 0 0 0 0 0 0 0 0 0 0 0 0 127 0" result="hardAlpha"/>
<feOffset dx="-2" dy="4"/>
<feComposite in2="hardAlpha" operator="out"/>
<feColorMatrix type="matrix" values="0 0 0 0 0.289876 0 0 0 0 0.241464 0 0 0 0 0.0316769 0 0 0 1 0"/>
<feBlend mode="normal" in2="BackgroundImageFix" result="effect1_dropShadow_244_808"/>
<feBlend mode="normal" in="SourceGraphic" in2="effect1_dropShadow_244_808" result="shape"/>
</filter>
</defs>
</svg>
