<svg width="70" height="102" viewBox="0 0 70 102" fill="none" xmlns="http://www.w3.org/2000/svg">
<g filter="url(#filter0_d_244_548)">
<path fill-rule="evenodd" clip-rule="evenodd" d="M18.67 0.449941C18.05 1.78994 9.21998 11.0299 8.47998 12.7199C5.47998 19.5299 2 27.9299 2 27.9299C2 27.9299 4.25 43.2499 4.25 45.9499C4.25 48.6499 3.8 59.0099 4.25 67.1199C4.7 75.2299 6.50001 80.6299 11.01 87.8399C15.51 95.0499 17.77 97.2999 17.77 97.2999C17.77 97.2999 43.9 97.2999 51.56 95.4999C55.48 94.5799 64.15 87.6499 65.39 83.0699C66.57 78.7099 60.37 76.7399 61.47 74.3199C63.72 69.3599 56.06 34.2299 56.06 34.2299C56.06 34.2299 49.3 32.8799 48.85 28.8199C48.4 24.7699 44.8 10.3499 44.8 10.3499L18.67 0.439941V0.449941Z" fill="#191700"/>
<path fill-rule="evenodd" clip-rule="evenodd" d="M18.5599 0C15.4099 6.76 10.1099 19.82 10.1099 19.82C10.1099 19.82 12.3599 35.14 12.3599 37.84C12.3599 40.54 11.9099 50.9 12.3599 59.01C12.8099 67.12 14.6099 72.52 19.1199 79.73C23.6299 86.94 25.8799 89.19 25.8799 89.19C25.8799 89.19 52.0099 89.19 59.6699 87.39C67.3299 85.59 67.3299 71.17 69.5799 66.22C71.4099 62.2 66.7099 38.33 64.8799 29.45C63.2599 21.61 57.6898 27.23 56.9698 20.72C56.7498 18.72 55.7599 14.18 54.8099 10.11C54.3899 8.29 53.6699 6.42 52.2399 5.17C49.8899 3.11 47.1799 1.86 44.1399 1.68L18.5699 0H18.5599Z" fill="#BAFF13"/>
<path fill-rule="evenodd" clip-rule="evenodd" d="M29.2099 86.6099C26.5099 86.3799 19.2999 78.2799 16.3699 69.4899C13.4399 60.7099 13.6699 41.1099 13.8899 38.1799C14.1099 35.2499 11.8599 20.1599 11.8599 20.1599C11.8599 20.1599 13.3999 14.4399 15.8099 6.17993C13.0199 12.6399 10.1099 19.8199 10.1099 19.8199C10.1099 19.8199 12.3599 35.1399 12.3599 37.8399C12.3599 40.5399 11.9099 50.8999 12.3599 59.0099C12.8099 67.1199 14.6099 72.5199 19.1199 79.7299C23.6299 86.9399 25.8799 89.1899 25.8799 89.1899C25.8799 89.1899 52.0099 89.1899 59.6699 87.3899C62.3399 86.7599 64.0799 84.5999 65.2999 81.8499C62.8599 83.6899 59.8599 85.1799 56.4599 86.1599C50.1499 87.9599 31.9099 86.8399 29.2099 86.6099Z" fill="#69D80D"/>
<path fill-rule="evenodd" clip-rule="evenodd" d="M14.1101 69.37C13.1101 66.21 12.5801 62.93 12.3601 59.02C12.2801 57.58 12.2301 56.07 12.2001 54.54L4.1001 62.91C4.1301 64.35 4.18013 65.77 4.26013 67.13C4.51013 71.58 5.16013 75.21 6.45013 78.78C9.70013 74.8 12.2001 71.73 14.1201 69.37H14.1101Z" fill="#BAFF13"/>
<path fill-rule="evenodd" clip-rule="evenodd" d="M59.67 87.3899C52.01 89.1899 25.88 89.1899 25.88 89.1899C25.88 89.1899 25.84 89.1499 25.76 89.0699C22.92 92.5299 20.72 95.2099 19.01 97.2999C24.3 97.2699 44.89 97.0699 51.55 95.4999C55.47 94.5799 64.14 87.6499 65.38 83.0699C65.54 82.4699 65.56 81.9199 65.49 81.3999C65.43 81.5499 65.36 81.6999 65.3 81.8399C64.07 84.5899 62.33 86.7499 59.67 87.3799V87.3899Z" fill="#BAFF13"/>
<path fill-rule="evenodd" clip-rule="evenodd" d="M11.4499 32.32C11.3899 32.03 11.5699 31.75 11.8599 31.69C12.1499 31.63 12.4299 31.81 12.4899 32.1C13.0999 34.99 12.91 38.78 12.71 42.73C12.61 44.73 12.5099 46.76 12.5099 48.77C12.5099 49.27 12.4999 50.01 12.4899 50.79C12.4099 56.5 12.2999 64.43 16.9699 74.56C21.6399 84.71 25.1899 88.06 25.9099 88.67C28.2999 88.67 52.8899 88.61 57.3399 87.34C61.9199 86.03 64.51 83.01 64.52 83C64.71 82.78 65.05 82.75 65.27 82.95C65.49 83.14 65.5199 83.48 65.3199 83.7C65.3199 83.7 62.5099 86.97 57.6299 88.37C52.8299 89.74 25.7999 89.74 25.7199 89.74C25.6099 89.74 25.4999 89.7 25.3999 89.63C25.3899 89.63 21.3499 86.62 15.9999 75.01C11.2299 64.67 11.3499 56.6 11.4299 50.78C11.4299 50.15 11.4499 49.55 11.4499 48.77C11.4499 46.79 11.5599 44.72 11.6599 42.68C11.8599 38.8 12.04 35.08 11.46 32.32H11.4499Z" fill="#191700"/>
<path fill-rule="evenodd" clip-rule="evenodd" d="M32.4299 80.65C32.3099 83.51 28.2699 82.71 29.8699 80.4C30.5499 79.41 31.9999 79.11 32.4299 80.65Z" fill="#191700"/>
<path fill-rule="evenodd" clip-rule="evenodd" d="M32.5398 80.1901C32.4198 83.0501 28.3798 82.2501 29.9798 79.9401C30.6598 78.9501 32.1098 78.6501 32.5398 80.1901Z" fill="#191700"/>
<path fill-rule="evenodd" clip-rule="evenodd" d="M29.54 75.6201C24.76 77.3801 23.18 72.04 28.13 72.41C30.24 72.57 31.77 74.0901 29.54 75.6201Z" fill="#191700"/>
<path fill-rule="evenodd" clip-rule="evenodd" d="M29.32 74.84C24.54 76.59 22.96 71.26 27.91 71.63C30.03 71.79 31.55 73.31 29.32 74.84Z" fill="#191700"/>
<path fill-rule="evenodd" clip-rule="evenodd" d="M61.8102 77.5201C58.9302 81.7101 54.5502 78.2701 58.8002 75.7101C60.6202 74.6201 62.7502 74.9801 61.8102 77.5201Z" fill="#191700"/>
<path fill-rule="evenodd" clip-rule="evenodd" d="M61.1701 77.0101C58.2901 81.2001 53.91 77.76 58.16 75.2C59.98 74.11 62.1101 74.4701 61.1701 77.0101Z" fill="#191700"/>
<path fill-rule="evenodd" clip-rule="evenodd" d="M22.8401 11.98C19.9501 16.17 15.5801 12.73 19.8301 10.17C21.6501 9.08002 23.7801 9.44002 22.8401 11.98Z" fill="#191700"/>
<path fill-rule="evenodd" clip-rule="evenodd" d="M22.2001 11.46C19.3201 15.65 14.9401 12.21 19.1901 9.65C21.0101 8.56 23.1401 8.92 22.2001 11.46Z" fill="#191700"/>
<path fill-rule="evenodd" clip-rule="evenodd" d="M32.6309 18.3071L29.6352 18.4691C28.5323 18.5287 27.6865 19.4712 27.7461 20.5741L29 40L31 64.5C31.0596 65.6029 31.2856 69.4543 32.3886 69.3947L35.3842 69.2327L48.3652 68.5309C49.4682 68.4713 50.314 67.5288 50.2544 66.4258L50.2004 65.4273C50.1407 64.3243 49.1983 63.4786 48.0953 63.5382L37.1114 64.132C36.0084 64.1917 35.0659 63.3459 35.0063 62.2429L34.0885 45.2677C34.0289 44.1648 34.8747 43.2223 35.9776 43.1627L46.9619 42.5688C48.0649 42.5092 48.9107 41.5667 48.851 40.4638L48.797 39.4652C48.7374 38.3623 47.7949 37.5165 46.692 37.5761L35.7077 38.17C34.6047 38.2296 33.6623 37.3838 33.6026 36.2809L33.0088 25.2969C32.9491 24.1939 33.7949 23.2515 34.8979 23.1918L45.8818 22.598C46.9848 22.5383 47.8306 21.5959 47.771 20.4929L47.717 19.4944C47.6573 18.3914 46.7149 17.5456 45.6119 17.6053L32.6309 18.3071Z" fill="#407B27"/>
<path fill-rule="evenodd" clip-rule="evenodd" d="M32.8877 19.7048L29.8921 19.8668C28.7891 19.9264 27.9433 20.8689 28.003 21.9718L28.1649 24.9674L30.3784 65.9077L30.5404 68.9033C30.6 70.0062 31.5425 70.852 32.6454 70.7924L35.641 70.6304L48.6221 69.9286C49.725 69.869 50.5708 68.9265 50.5112 67.8235L50.4572 66.825C50.3976 65.722 49.4551 64.8763 48.3521 64.9359L37.3682 65.5298C36.2652 65.5894 35.3228 64.7436 35.2631 63.6406L34.3454 46.6655C34.2857 45.5625 35.1315 44.62 36.2345 44.5604L47.2188 43.9665C48.3217 43.9069 49.1675 42.9644 49.1079 41.8615L49.0539 40.8629C48.9942 39.76 48.0518 38.9142 46.9488 38.9738L35.9645 39.5677C34.8616 39.6273 33.9191 38.7815 33.8595 37.6786L33.2656 26.6946C33.206 25.5916 34.0518 24.6492 35.1547 24.5895L46.1387 23.9957C47.2416 23.936 48.0874 22.9936 48.0278 21.8906L47.9738 20.8921C47.9142 19.7891 46.9717 18.9433 45.8687 19.003L32.8877 19.7048Z" fill="#191700"/>
</g>
<defs>
<filter id="filter0_d_244_548" x="0" y="0" width="69.9954" height="101.3" filterUnits="userSpaceOnUse" color-interpolation-filters="sRGB">
<feFlood flood-opacity="0" result="BackgroundImageFix"/>
<feColorMatrix in="SourceAlpha" type="matrix" values="0 0 0 0 0 0 0 0 0 0 0 0 0 0 0 0 0 0 127 0" result="hardAlpha"/>
<feOffset dx="-2" dy="4"/>
<feComposite in2="hardAlpha" operator="out"/>
<feColorMatrix type="matrix" values="0 0 0 0 0.289876 0 0 0 0 0.241464 0 0 0 0 0.0316769 0 0 0 1 0"/>
<feBlend mode="normal" in2="BackgroundImageFix" result="effect1_dropShadow_244_548"/>
<feBlend mode="normal" in="SourceGraphic" in2="effect1_dropShadow_244_548" result="shape"/>
</filter>
</defs>
</svg>
