<svg width="75" height="94" viewBox="0 0 75 94" fill="none" xmlns="http://www.w3.org/2000/svg">
<path fill-rule="evenodd" clip-rule="evenodd" d="M41.1078 7.42082C53.7278 7.21082 58.5978 5.44081 64.7278 7.16081C66.1778 7.57081 67.0878 7.78082 67.8778 8.46081C69.3078 9.69081 70.0478 11.6708 70.9878 13.5408C72.6378 16.8508 74.7078 20.8608 74.3278 24.1108C73.2378 33.4508 70.2278 49.1308 69.2478 53.1008C67.9078 58.4708 69.8778 60.8408 69.4078 65.7808C68.9378 70.7208 76.5278 73.7808 56.9778 86.3608C37.4178 98.9408 38.9378 90.0008 28.4878 90.4308C18.0378 90.8608 17.0878 86.7808 12.0978 81.6208C7.10782 76.4608 0.187806 69.4308 0.00780608 65.5708C-0.132194 62.4508 1.64781 51.2508 2.38781 39.0108C2.56781 36.0708 2.67781 33.0708 2.69781 30.1108C2.73781 21.2308 1.68781 15.9708 3.33781 12.2708C4.52781 9.60081 6.21782 5.62082 9.01782 3.92082C11.7578 2.25082 19.4678 6.68081 23.8678 6.47081C28.2678 6.26081 41.1378 7.42082 41.1378 7.42082H41.1078Z" fill="#191700"/>
<path fill-rule="evenodd" clip-rule="evenodd" d="M3.6178 72.3408C4.4878 68.2908 3.55781 57.7308 4.23781 53.5808C6.39781 56.9008 11.5978 66.8208 14.5478 70.1008C17.4978 73.3808 18.9278 76.4408 22.7078 77.6908C22.3778 82.0708 21.9178 86.1808 21.4378 89.7408C17.1278 88.3908 15.6178 85.2708 12.0878 81.6108C9.3778 78.8008 6.0878 75.4408 3.6178 72.3308V72.3408Z" fill="#191700"/>
<path fill-rule="evenodd" clip-rule="evenodd" d="M40.6478 80.7409C41.1078 85.8409 41.5678 89.8909 41.9778 93.0709C39.8378 93.2509 38.2578 92.7709 36.6778 92.1809L35.1678 79.6609C36.8278 80.3509 38.3678 81.0009 40.6378 80.7409H40.6478Z" fill="#191700"/>
<path fill-rule="evenodd" clip-rule="evenodd" d="M66.6278 5.21086C68.0878 6.82086 68.2778 8.95086 68.2778 8.95086C68.2778 8.95086 65.1678 38.5608 64.0078 43.5608C62.8478 48.5608 64.5478 50.7609 64.1478 55.3609C63.7378 59.9609 70.3078 62.8109 53.3878 74.5209C36.4578 86.2309 37.7778 77.9109 28.7278 78.3109C19.6778 78.7109 18.8578 74.9109 14.5478 70.1109C10.2278 65.3109 4.23778 58.7609 4.08778 55.1609C3.93778 51.5609 6.34778 36.3909 6.40778 22.1509C6.44778 13.8909 5.53779 8.98086 6.95779 5.54086C7.98779 3.05086 11.2078 1.03086 12.2578 0.490856C15.7978 -1.30914 63.9078 2.20086 66.6278 5.20086V5.21086Z" fill="#BAFF13"/>
<path fill-rule="evenodd" clip-rule="evenodd" d="M64.0178 43.551C62.8578 48.551 64.5578 50.751 64.1578 55.351C63.9878 57.251 65.0078 58.851 65.0778 60.911C65.1678 63.821 63.3278 67.641 53.3978 74.511C47.1378 78.841 43.3778 80.431 40.6578 80.741C38.3778 81.001 36.8378 80.351 35.1878 79.661C33.4778 78.941 31.6378 78.181 28.7378 78.311C26.1478 78.421 24.2278 78.191 22.7078 77.691C21.6778 77.351 20.8278 76.881 20.0778 76.321C24.3378 77.681 26.9978 77.041 30.8478 76.861C35.5778 76.631 36.9278 80.241 40.5378 78.891C44.1378 77.541 54.7278 71.681 57.2078 67.851C59.6878 64.021 62.1678 63.571 61.7078 58.841C61.2578 54.111 61.7078 53.211 62.6078 44.201C63.3378 36.891 65.8478 24.101 67.3678 17.001C67.2478 18.341 67.1078 19.741 66.9578 21.091C66.9578 21.101 66.9578 21.121 66.9578 21.131C66.4978 25.221 65.9778 29.741 65.4778 33.691C64.9078 38.241 64.3778 42.031 64.0278 43.551H64.0178Z" fill="#69D80D"/>
<path fill-rule="evenodd" clip-rule="evenodd" d="M20.1978 78.1008C20.2978 78.7208 20.2178 78.6808 18.8778 88.5708C16.3378 86.9508 14.8178 84.4508 12.0878 81.6208C9.68778 79.1308 6.82779 76.2108 4.49779 73.4108C4.31779 73.2008 5.04778 72.4708 4.86778 72.2608V71.9008L5.28778 64.5808C5.71778 63.9508 5.65779 63.2408 6.52779 64.2308C7.04779 64.8208 7.77779 65.5708 8.82779 66.4908C11.7578 69.0808 12.9978 69.9808 15.5878 73.9208C18.1778 77.8608 20.0878 77.4108 20.2078 78.0908L20.1978 78.1008Z" fill="#BAFF13"/>
<path fill-rule="evenodd" clip-rule="evenodd" d="M59.2378 58.2507C58.2778 63.4207 52.8978 61.9807 55.7578 57.7907C56.9778 56.0007 59.0778 55.4507 59.2378 58.2507Z" fill="#191700"/>
<path fill-rule="evenodd" clip-rule="evenodd" d="M58.4578 58.0208C57.4978 63.1908 52.1178 61.7507 54.9778 57.5607C56.1978 55.7707 58.2978 55.2208 58.4578 58.0208Z" fill="#191700"/>
<path fill-rule="evenodd" clip-rule="evenodd" d="M54.7978 65.9609C54.2778 71.1909 49.8078 68.3409 49.7378 66.0709C49.6778 63.9009 55.0778 63.1809 54.7978 65.9609Z" fill="#191700"/>
<path fill-rule="evenodd" clip-rule="evenodd" d="M54.6279 65.0009C54.1079 70.2309 49.6379 67.3809 49.5679 65.1109C49.5079 62.9409 54.8979 62.2209 54.6279 65.0009Z" fill="#191700"/>
<path fill-rule="evenodd" clip-rule="evenodd" d="M13.9678 12.9709C13.0178 18.1409 7.62779 16.701 10.4878 12.511C11.7078 10.721 13.8078 10.1709 13.9678 12.9709Z" fill="#191700"/>
<path fill-rule="evenodd" clip-rule="evenodd" d="M14.2479 12.1309C13.2879 17.3009 7.90786 15.8609 10.7679 11.6709C11.9879 9.88086 14.0879 9.33085 14.2479 12.1309Z" fill="#191700"/>
<path fill-rule="evenodd" clip-rule="evenodd" d="M13.8379 19.7807C13.7179 22.7307 9.67786 21.9107 11.2779 19.5207C11.9579 18.5007 13.4079 18.1907 13.8379 19.7807Z" fill="#191700"/>
<path fill-rule="evenodd" clip-rule="evenodd" d="M13.9478 19.3007C13.8278 22.2507 9.78785 21.4307 11.3878 19.0407C12.0678 18.0207 13.5178 17.7107 13.9478 19.3007Z" fill="#191700"/>
<path fill-rule="evenodd" clip-rule="evenodd" d="M64.0678 12.3408C63.9478 15.2908 59.9078 14.4708 61.5078 12.0808C62.1878 11.0608 63.6378 10.7508 64.0678 12.3408Z" fill="#191700"/>
<path fill-rule="evenodd" clip-rule="evenodd" d="M64.1778 11.8608C64.0578 14.8108 60.0178 13.9908 61.6178 11.6008C62.2978 10.5808 63.7478 10.2708 64.1778 11.8608Z" fill="#191700"/>
<path fill-rule="evenodd" clip-rule="evenodd" d="M51.6078 89.5609C49.7378 90.5809 48.1279 91.331 46.7179 91.881C46.2779 89.031 45.6579 85.061 44.7979 79.541C45.8579 79.081 47.0479 78.4909 48.3879 77.7209L51.6179 89.5609H51.6078Z" fill="#BAFF13"/>
<path fill-rule="evenodd" clip-rule="evenodd" d="M6.36775 18.6909C7.55775 26.2909 8.08775 32.4809 8.08775 32.4809C8.08775 32.4809 7.07776 35.3009 6.95776 36.8709C6.84776 38.4509 5.99776 42.4509 5.99776 42.4509C5.48776 47.0209 4.47775 50.7609 4.89775 57.9309C4.36775 56.8909 4.10776 55.9509 4.07776 55.1509C3.99776 53.2509 3.92776 51.6409 4.05776 49.4809C4.54776 41.0109 6.36775 30.5109 6.39775 22.1409C6.39775 20.9209 6.38776 19.7709 6.35776 18.6809L6.36775 18.6909Z" fill="#69D80D"/>
<path fill-rule="evenodd" clip-rule="evenodd" d="M64.7078 63.8908C64.7878 63.6908 64.6979 63.4508 64.4979 63.3708C64.2979 63.2908 64.0579 63.3808 63.9779 63.5808C62.6179 66.8508 61.2879 67.8608 59.7479 69.0308C59.4379 69.2708 59.1179 69.5108 58.8179 69.7508C57.3979 70.9008 55.9079 72.0608 54.3479 73.2108C52.7979 74.3608 51.1678 75.4908 49.4878 76.5808C46.6478 78.4208 44.5278 79.4808 42.9578 80.0408C41.4278 80.5908 40.4179 80.6708 39.7479 80.5708C39.2879 80.5008 38.4878 80.1708 37.5478 79.7708C35.7078 79.0008 33.3379 78.0108 31.3379 78.0908L30.7279 78.1208C27.9679 78.2308 24.7979 78.3608 20.9779 77.4308C17.7279 76.6408 16.6179 75.0508 15.3179 73.2008C15.0079 72.7508 14.6879 72.2908 14.3279 71.8308C13.3279 70.5308 11.1578 68.5208 9.17785 66.6908C7.35785 65.0008 5.69786 63.4708 5.34786 62.8708L5.19785 62.6208C4.50785 61.4508 3.94786 60.5008 4.04786 57.3408C4.15786 53.8008 4.15786 50.4708 4.15786 50.4608C4.15786 50.2408 3.97785 50.0608 3.75785 50.0608C3.53785 50.0608 3.35786 50.2408 3.35786 50.4608C3.35786 50.4608 3.35786 53.8808 3.24786 57.3208C3.13786 60.7108 3.74785 61.7508 4.50785 63.0308L4.64785 63.2708C5.05785 63.9708 6.75786 65.5508 8.62786 67.2808C10.5779 69.0908 12.7179 71.0708 13.6879 72.3308C14.0479 72.7908 14.3579 73.2308 14.6579 73.6608C16.0479 75.6508 17.2379 77.3508 20.7779 78.2108C24.7079 79.1708 27.9379 79.0408 30.7479 78.9208L31.3578 78.8908C33.1778 78.8208 35.4579 79.7808 37.2279 80.5108C38.2179 80.9208 39.0578 81.2708 39.6179 81.3608C40.4079 81.4808 41.5379 81.4008 43.2179 80.7908C44.8479 80.2008 47.0179 79.1208 49.9179 77.2408C51.6179 76.1408 53.2479 75.0008 54.8179 73.8408C56.3879 72.6808 57.8879 71.5108 59.3079 70.3608C59.6379 70.0908 59.9379 69.8708 60.2179 69.6508C61.8479 68.4108 63.2578 67.3408 64.7078 63.8808V63.8908Z" fill="#407B27"/>
<path fill-rule="evenodd" clip-rule="evenodd" d="M20.4142 35.9706C19.6332 36.7516 19.6332 38.0179 20.4142 38.799L35.9706 54.3553C36.7516 55.1364 38.0179 55.1364 38.799 54.3553L54.3553 38.799C55.1364 38.0179 55.1364 36.7516 54.3553 35.9706L38.799 20.4142C38.0179 19.6332 36.7516 19.6332 35.9706 20.4142L20.4142 35.9706ZM26.0712 35.9704C25.2902 36.7515 25.2902 38.0178 26.0712 38.7988L35.9707 48.6983C36.7518 49.4794 38.0181 49.4794 38.7991 48.6983L48.6986 38.7988C49.4797 38.0178 49.4797 36.7515 48.6986 35.9704L38.7991 26.0709C38.0181 25.2899 36.7518 25.2899 35.9707 26.0709L26.0712 35.9704Z" fill="#407B27"/>
<path fill-rule="evenodd" clip-rule="evenodd" d="M20.4134 37.9703C19.6323 38.7514 19.6323 40.0177 20.4134 40.7987L35.9697 56.3551C36.7508 57.1361 38.0171 57.1361 38.7981 56.3551L54.3545 40.7987C55.1355 40.0177 55.1355 38.7514 54.3545 37.9703L38.7981 22.414C38.0171 21.6329 36.7508 21.6329 35.9697 22.414L20.4134 37.9703ZM26.0711 37.9707C25.29 38.7517 25.29 40.018 26.0711 40.7991L35.9706 50.6986C36.7516 51.4796 38.0179 51.4796 38.799 50.6986L48.6985 40.7991C49.4795 40.018 49.4795 38.7517 48.6985 37.9707L38.799 28.0712C38.0179 27.2901 36.7516 27.2901 35.9706 28.0712L26.0711 37.9707Z" fill="#191700"/>
</svg>
