<svg width="71" height="102" viewBox="0 0 71 102" fill="none" xmlns="http://www.w3.org/2000/svg">
<g filter="url(#filter0_d_244_480)">
<path fill-rule="evenodd" clip-rule="evenodd" d="M17.89 0.761719C17.3 2.15172 8.75 12.0917 8.06 13.8317C5.25 20.8817 2 29.5617 2 29.5617C2 29.5617 4.65 44.7217 4.72 47.4217C4.79 50.1317 4.62 60.5317 5.28 68.6117C5.94 76.6917 7.88 81.9617 12.56 88.8317C17.24 95.6917 19.55 97.7717 19.55 97.7717C19.55 97.7717 45.6 95.7317 53.19 93.3317C57.07 92.1017 65.54 84.4917 66.65 79.8217C67.71 75.3617 61.48 73.8817 62.51 71.3717C64.62 66.2317 56.06 31.6617 56.06 31.6617C56.06 31.6617 49.29 30.8317 48.73 26.8117C48.17 22.7917 44.2 8.64172 44.2 8.64172L17.89 0.761719Z" fill="#191700"/>
<path fill-rule="evenodd" clip-rule="evenodd" d="M17.7701 0.3217C14.8001 7.3317 9.87012 20.8217 9.87012 20.8217C9.87012 20.8217 12.5201 35.9817 12.5901 38.6817C12.6601 41.3917 12.4901 51.7917 13.1501 59.8717C13.8101 67.9517 15.7501 73.2217 20.4401 80.0917C25.1201 86.9517 27.4301 89.0317 27.4301 89.0317C27.4301 89.0317 53.4801 86.9917 61.0701 84.5917C68.6601 82.1917 68.2801 67.7617 70.3901 62.6217C72.1001 58.4517 66.8001 34.9217 64.7301 26.1817C62.9001 18.4517 57.5101 24.5217 56.6101 18.0617C56.3401 16.0717 55.2301 11.6117 54.1701 7.61171C53.7001 5.82171 52.9401 4.01172 51.4801 2.87172C49.0801 0.991718 46.3501 -0.0482768 43.3101 0.00172322L17.7701 0.311721V0.3217Z" fill="#BAFF13"/>
<path fill-rule="evenodd" clip-rule="evenodd" d="M30.6701 86.1817C27.9701 86.1617 20.5701 78.6117 17.4201 70.0417C14.2701 61.4817 13.9701 41.8417 14.1201 38.8917C14.2701 35.9417 11.6201 21.0117 11.6201 21.0117C11.6201 21.0117 13.0001 15.1617 15.1801 6.71167C12.5701 13.4017 9.86011 20.8017 9.86011 20.8017C9.86011 20.8017 12.5101 35.9617 12.5801 38.6617C12.6501 41.3717 12.4801 51.7717 13.1401 59.8517C13.8001 67.9317 15.7401 73.2017 20.4301 80.0717C25.1101 86.9317 27.4201 89.0117 27.4201 89.0117C27.4201 89.0117 53.4701 86.9717 61.0601 84.5717C63.7001 83.7317 65.3801 81.4417 66.5301 78.5817C64.1501 80.6117 61.1901 82.3417 57.8301 83.5817C51.5901 85.8717 33.3701 86.1717 30.6701 86.1517V86.1817Z" fill="#69D80D"/>
<path fill-rule="evenodd" clip-rule="evenodd" d="M15.17 70.1016C14.09 67.0216 13.47 63.7716 13.15 59.8716C13.03 58.4316 12.94 56.9216 12.87 55.4016L5.01001 64.4116C5.08001 65.8516 5.17 67.2716 5.28 68.6216C5.64 73.0516 6.39002 76.6416 7.77002 80.1116C10.9 75.8716 13.31 72.6116 15.17 70.1016Z" fill="#BAFF13"/>
<path fill-rule="evenodd" clip-rule="evenodd" d="M61.06 84.6016C53.47 87.0016 27.42 89.0416 27.42 89.0416C27.42 89.0416 27.38 89.0016 27.3 88.9316C24.56 92.6116 22.44 95.4717 20.79 97.6917C26.06 97.2516 46.5901 95.4416 53.1801 93.3616C57.0601 92.1316 65.53 84.5216 66.64 79.8516C66.79 79.2416 66.79 78.6816 66.7 78.1716C66.64 78.3216 66.5801 78.4817 66.5201 78.6317C65.37 81.4817 63.69 83.7816 61.05 84.6216L61.06 84.6016Z" fill="#BAFF13"/>
<path fill-rule="evenodd" clip-rule="evenodd" d="M11.54 33.2018C11.47 32.9118 11.6501 32.6318 11.9301 32.5618C12.2101 32.4918 12.5 32.6718 12.57 32.9518C13.25 35.8018 13.16 39.6118 13.07 43.5718C13.02 45.5918 12.9701 47.6518 13.0201 49.6318C13.0401 50.2618 13.0501 50.9418 13.0501 51.6618C13.1201 57.3818 13.22 65.3317 18.14 75.1017C23.04 84.8418 26.66 87.9318 27.41 88.5018C29.83 88.3118 54.31 86.3318 58.7 84.7218C63.24 83.0518 65.75 79.8118 65.76 79.8018C65.94 79.5718 66.27 79.5318 66.5 79.7118C66.73 79.8918 66.77 80.2218 66.59 80.4518C66.59 80.4518 63.88 83.9418 59.06 85.7118C54.31 87.4618 27.37 89.5618 27.29 89.5718C27.17 89.5718 27.05 89.5518 26.95 89.4818C26.94 89.4818 22.83 86.7817 17.19 75.5718C12.16 65.5817 12.0601 57.4918 11.9901 51.6718C11.9901 50.9718 11.9701 50.3018 11.9601 49.6618C11.9101 47.6618 11.96 45.5818 12 43.5518C12.09 39.6518 12.18 35.9118 11.53 33.2018H11.54Z" fill="#191700"/>
<path fill-rule="evenodd" clip-rule="evenodd" d="M33.7301 79.9716C33.6901 82.8416 29.6401 82.3616 31.1701 79.9216C31.8301 78.8816 33.2601 78.4616 33.7301 79.9716Z" fill="#191700"/>
<path fill-rule="evenodd" clip-rule="evenodd" d="M33.8302 79.5016C33.7902 82.3716 29.7402 81.8916 31.2702 79.4516C31.9302 78.4116 33.3602 77.9916 33.8302 79.5016Z" fill="#191700"/>
<path fill-rule="evenodd" clip-rule="evenodd" d="M30.7102 75.1618C26.0002 77.2918 24.2702 72.0718 29.2202 72.0518C31.3302 72.0518 32.9002 73.4518 30.7102 75.1618Z" fill="#191700"/>
<path fill-rule="evenodd" clip-rule="evenodd" d="M30.4701 74.3917C25.7501 76.5217 24.0301 71.3017 28.9801 71.2817C31.0901 71.2817 32.6601 72.6817 30.4701 74.3917Z" fill="#191700"/>
<path fill-rule="evenodd" clip-rule="evenodd" d="M62.93 74.5517C60.16 78.9717 55.71 75.8717 59.88 72.9817C61.66 71.7417 63.79 71.9417 62.93 74.5517Z" fill="#191700"/>
<path fill-rule="evenodd" clip-rule="evenodd" d="M62.2901 74.0817C59.5201 78.5017 55.0701 75.4017 59.2401 72.5117C61.0201 71.2717 63.1501 71.4717 62.2901 74.0817Z" fill="#191700"/>
<path fill-rule="evenodd" clip-rule="evenodd" d="M25.83 9.98157C21.11 12.1116 19.39 6.89158 24.34 6.87158C26.45 6.87158 28.02 8.27157 25.83 9.98157Z" fill="#191700"/>
<path fill-rule="evenodd" clip-rule="evenodd" d="M25.59 9.21158C20.87 11.3416 19.15 6.12156 24.09 6.10156C26.2 6.10156 27.77 7.50158 25.59 9.21158Z" fill="#191700"/>
<path fill-rule="evenodd" clip-rule="evenodd" d="M21.0299 14.8117C20.9899 17.6817 16.9399 17.2017 18.4699 14.7617C19.1299 13.7217 20.5599 13.3017 21.0299 14.8117Z" fill="#191700"/>
<path fill-rule="evenodd" clip-rule="evenodd" d="M21.12 14.3317C21.08 17.2017 17.03 16.7217 18.56 14.2817C19.22 13.2417 20.65 12.8217 21.12 14.3317Z" fill="#191700"/>
<path fill-rule="evenodd" clip-rule="evenodd" d="M44.62 5.8517C44.58 8.7217 40.53 8.24171 42.06 5.80171C42.72 4.76171 44.15 4.3417 44.62 5.8517Z" fill="#191700"/>
<path fill-rule="evenodd" clip-rule="evenodd" d="M44.7201 5.38174C44.6801 8.25174 40.6301 7.77172 42.1601 5.33172C42.8201 4.29172 44.2501 3.87174 44.7201 5.38174Z" fill="#191700"/>
<path fill-rule="evenodd" clip-rule="evenodd" d="M32.78 66.2817V15.0217C32.78 14.4317 33.26 13.9617 33.84 13.9617H34.13C34.42 13.9617 34.67 14.0617 34.88 14.2717L53.34 32.7317C53.75 33.1417 53.76 33.7917 53.36 34.2117L37.57 51.0317C37.37 51.2517 37.28 51.4817 37.28 51.7717V66.2817C37.28 66.8717 36.8 67.3417 36.22 67.3417H33.85C33.26 67.3417 32.79 66.8617 32.79 66.2817H32.78ZM37.28 40.6517C37.28 41.1117 37.53 41.4817 37.95 41.6517C38.37 41.8217 38.81 41.7417 39.13 41.4117L46.35 34.1917C46.77 33.7717 46.77 33.0817 46.35 32.6617L39.13 25.4317C38.81 25.1117 38.37 25.0217 37.95 25.1917C37.53 25.3617 37.28 25.7317 37.28 26.1917V40.6417V40.6517Z" fill="#191700"/>
<path fill-rule="evenodd" clip-rule="evenodd" d="M32.78 68.3517V17.0917C32.78 16.5017 33.26 15.9917 33.84 15.9517L34.13 15.9317C34.42 15.9117 34.67 16.0017 34.88 16.1917L53.34 33.3317C53.75 33.7117 53.76 34.3617 53.36 34.8117L37.57 52.7517C37.37 52.9817 37.28 53.2217 37.28 53.5117V68.0217C37.28 68.6117 36.8 69.1217 36.22 69.1617L33.85 69.3317C33.26 69.3717 32.79 68.9317 32.79 68.3417L32.78 68.3517ZM37.28 42.3917C37.28 42.8517 37.53 43.2017 37.95 43.3517C38.37 43.4917 38.81 43.3817 39.13 43.0317L46.35 35.3017C46.77 34.8517 46.77 34.1617 46.35 33.7717L39.13 27.0617C38.81 26.7617 38.37 26.7017 37.95 26.9117C37.53 27.1217 37.28 27.5017 37.28 27.9617V42.4117V42.3917Z" fill="#191700"/>
</g>
<defs>
<filter id="filter0_d_244_480" x="0" y="0" width="70.7246" height="101.772" filterUnits="userSpaceOnUse" color-interpolation-filters="sRGB">
<feFlood flood-opacity="0" result="BackgroundImageFix"/>
<feColorMatrix in="SourceAlpha" type="matrix" values="0 0 0 0 0 0 0 0 0 0 0 0 0 0 0 0 0 0 127 0" result="hardAlpha"/>
<feOffset dx="-2" dy="4"/>
<feComposite in2="hardAlpha" operator="out"/>
<feColorMatrix type="matrix" values="0 0 0 0 0 0 0 0 0 0 0 0 0 0 0 0 0 0 1 0"/>
<feBlend mode="normal" in2="BackgroundImageFix" result="effect1_dropShadow_244_480"/>
<feBlend mode="normal" in="SourceGraphic" in2="effect1_dropShadow_244_480" result="shape"/>
</filter>
</defs>
</svg>
