<svg width="71" height="103" viewBox="0 0 71 103" fill="none" xmlns="http://www.w3.org/2000/svg">
<g filter="url(#filter0_d_244_871)">
<path fill-rule="evenodd" clip-rule="evenodd" d="M50.4301 4.24225C55.6101 8.16225 55.8401 7.72225 56.9601 14.9123C58.0901 22.1023 58.7601 24.4923 58.7601 24.4923C58.7601 24.4923 37.1401 10.7723 37.1401 7.50226C37.1401 4.23226 41.6401 2.05225 50.4301 4.23225V4.24225Z" fill="#191700"/>
<path fill-rule="evenodd" clip-rule="evenodd" d="M51.6699 12.4722C54.8699 19.1022 54.3799 18.6822 57.0799 22.4122C58.4699 24.3322 60.3899 18.0222 61.6099 18.6222C62.7599 19.1922 64.1699 26.2522 64.5299 28.0122C65.5599 33.0022 63.7799 43.9722 64.6899 53.6022C64.9499 56.3622 65.2199 49.0922 66.7099 49.8922C67.5099 50.3222 69.8998 58.3622 70.0398 59.7122C70.9099 68.0622 68.8999 81.7922 67.6499 86.8222C67.6499 86.8222 64.2099 91.3822 61.9899 93.6622C59.7799 95.9422 57.0699 97.8022 45.5099 98.4222C41.9399 98.6122 40.0399 97.1022 35.5699 96.7022C25.5599 95.8022 12.8299 95.2022 11.8099 94.4922C10.3299 93.4522 3.93987 84.3422 3.93987 84.3422C3.93987 84.3422 2.21988 76.8322 2.44988 74.4522C3.64988 61.8422 9.41989 28.0722 11.0799 25.1122C13.0499 21.5922 18.1799 18.6122 19.1999 15.7922C21.7299 8.80224 35.8999 5.74225 51.6699 12.4822V12.4722Z" fill="#191700"/>
<path fill-rule="evenodd" clip-rule="evenodd" d="M51.6799 12.4724C52.4399 14.0424 52.9899 15.2224 53.4199 16.1424C54.8199 19.1324 55.0199 19.5624 57.0899 22.4024C57.4099 22.8424 57.7699 22.8424 58.1299 22.5724C58.6299 22.2024 59.1599 21.3624 59.6799 20.5424C60.3899 19.4124 61.0699 18.3324 61.6199 18.6024C62.7399 19.1524 64.0799 25.7124 64.4999 27.7824L64.5499 28.0124C65.0499 30.4624 64.8799 34.3624 64.6799 38.8324C64.4799 43.4624 64.2399 48.7024 64.7099 53.6024C64.7499 54.0424 64.7899 54.2224 64.8199 54.2124C64.8799 54.2124 64.9599 53.7724 65.0799 53.1724C65.2599 52.2724 65.4999 51.0224 65.8799 50.3224C66.1099 49.9024 66.3799 49.6824 66.7199 49.8724C67.0599 50.0524 67.6798 51.5824 68.2898 53.3924C69.1398 55.8924 69.9699 58.9324 70.0599 59.7124C70.4299 63.2424 70.2799 67.7324 69.8999 72.1224C69.3699 78.1124 68.3999 83.9124 67.6699 86.8224C67.6699 86.8324 64.2299 91.3824 62.0099 93.6624C60.8999 94.8024 59.6699 95.8424 57.2699 96.6724C54.8699 97.5024 51.2999 98.1224 45.5199 98.4324C43.5799 98.5324 42.1299 98.1424 40.4899 97.6824C39.1199 97.3024 37.6099 96.8924 35.5699 96.7024C32.1599 96.3924 28.4199 96.1224 24.9399 95.8724C18.2299 95.3824 12.4799 94.9624 11.7999 94.4924C10.3199 93.4524 3.93985 84.3624 3.91985 84.3424C3.91985 84.3224 2.19986 76.8324 2.42986 74.4424C3.04986 67.9324 4.88987 55.8024 6.74987 45.1624C8.48987 35.1824 10.2599 26.5224 11.0599 25.0924C12.0199 23.3724 13.7299 21.7824 15.3599 20.2724C17.0599 18.6924 18.6599 17.2124 19.1799 15.7724C19.2199 15.6524 19.2699 15.5324 19.3199 15.4124C20.6799 12.2324 24.4999 9.92239 29.7799 9.05239C35.0599 8.18239 41.7999 8.7724 48.9999 11.3824C49.8899 11.7024 50.7799 12.0524 51.6799 12.4424V12.4724ZM53.3899 16.1624C52.9599 15.2324 52.4099 14.0624 51.6499 12.4924C50.7499 12.1124 49.8599 11.7624 48.9799 11.4424C41.7799 8.83239 35.0499 8.2524 29.7799 9.1124C24.5099 9.9724 20.7099 12.2824 19.3499 15.4424C19.2999 15.5624 19.2499 15.6824 19.2099 15.7924C18.6899 17.2424 17.0799 18.7224 15.3799 20.3124C13.7599 21.8124 12.0499 23.4024 11.0899 25.1224C10.2899 26.5524 8.5299 35.2024 6.7799 45.1824C4.9199 55.8124 3.08989 67.9524 2.45989 74.4624C2.22989 76.8224 3.91988 84.1924 3.94988 84.3424C4.04988 84.4824 10.3499 93.4524 11.8099 94.4824C12.4799 94.9524 18.2199 95.3724 24.9299 95.8624C28.3999 96.1124 32.1399 96.3924 35.5599 96.6924C37.6099 96.8724 39.1099 97.2924 40.4799 97.6724C42.1099 98.1224 43.5599 98.5224 45.4899 98.4124C51.2699 98.1024 54.8298 97.4824 57.2299 96.6524C59.6199 95.8224 60.8499 94.7924 61.9599 93.6524C64.1399 91.4024 67.5199 86.9524 67.6099 86.8224C68.3299 83.9124 69.3099 78.1224 69.8299 72.1324C70.2199 67.7424 70.3599 63.2524 69.9899 59.7324C69.9099 58.9524 69.0699 55.9124 68.2199 53.4224C67.6099 51.6224 66.9999 50.1024 66.6699 49.9224C66.3599 49.7524 66.0999 49.9624 65.8799 50.3624C65.5099 51.0524 65.2599 52.3024 65.0899 53.2024C64.9699 53.8124 64.8798 54.2624 64.7898 54.2724C64.7298 54.2724 64.6799 54.0924 64.6299 53.6224C64.1699 48.7224 64.3999 43.4724 64.6099 38.8424C64.8099 34.3724 64.9799 30.4724 64.4799 28.0324L64.4299 27.8024C64.0099 25.7324 62.6699 19.1924 61.5699 18.6524C61.0499 18.3924 60.3799 19.4624 59.6799 20.5724C59.1599 21.3924 58.6299 22.2424 58.1199 22.6124C57.7399 22.8924 57.3599 22.9024 57.0199 22.4324C54.9499 19.5824 54.7499 19.1524 53.3499 16.1624H53.3899Z" fill="#191700"/>
<path fill-rule="evenodd" clip-rule="evenodd" d="M67.7701 86.3722C67.7301 86.5322 67.6901 86.6922 67.6601 86.8422C67.6601 86.8422 64.2201 91.4022 62.0001 93.6822C61.3501 94.3522 60.6501 94.9922 59.7001 95.5622L53.2301 73.8522L42.5601 78.7922L43.4401 98.3622C41.7901 98.1422 40.3701 97.6022 38.5101 97.1822C38.7201 91.6922 38.5601 77.2922 38.5601 77.2922L12.3301 79.0122L13.2401 94.8622C12.4901 94.7522 11.9901 94.6322 11.8201 94.5122C10.3401 93.4722 3.95012 84.3622 3.95012 84.3622C3.95012 84.3622 2.23013 76.8522 2.46013 74.4722C2.67013 72.2822 3.02013 69.4522 3.46013 66.2522C23.2701 67.0422 65.0201 69.9922 65.0201 69.9922L67.7701 86.3822V86.3722Z" fill="#BAFF13"/>
<path fill-rule="evenodd" clip-rule="evenodd" d="M49.72 3.76227C52.92 10.3923 52.43 9.97228 55.13 13.7023C57.84 17.4323 60.79 16.8123 61.77 19.0923C63.8 23.8023 61.83 35.2623 62.74 44.9023C63.14 49.1623 66.65 47.1623 67.05 51.0223C67.92 59.3723 66.95 73.1023 65.71 78.1323C65.71 78.1323 62.27 82.6923 60.05 84.9623C57.84 87.2423 55.13 89.1023 43.57 89.7223C32.01 90.3423 11.35 86.8223 9.87 85.7823C8.39 84.7423 2 75.6323 2 75.6323C2 75.6323 7.17 19.9123 9.13 16.3923C11.1 12.8723 16.23 9.89228 17.25 7.07228C19.78 0.0822787 33.95 -2.97773 49.72 3.76227Z" fill="#BAFF13"/>
<path fill-rule="evenodd" clip-rule="evenodd" d="M62.6199 32.1123C62.4899 36.2523 62.3499 40.7423 62.7399 44.8923C63.1399 49.1523 66.6499 47.1523 67.0499 51.0123C67.9199 59.3623 66.9499 73.0923 65.7099 78.1223C65.7099 78.1223 62.2699 82.6823 60.0499 84.9523C57.8399 87.2323 55.1299 89.0923 43.5699 89.7123C32.0099 90.3323 11.3499 86.8123 9.86987 85.7723C9.15987 85.2723 7.32986 82.9223 5.60986 80.6123C6.54986 81.1723 7.39991 81.7523 7.96991 82.3023C10.2199 84.4823 15.8499 86.4423 18.5599 86.6623C21.2699 86.8823 35.8999 86.8823 39.0599 87.5323C42.2099 88.1823 42.2099 87.3123 46.2699 86.2223C50.3199 85.1323 55.0599 88.6223 56.4099 85.1323C57.7599 81.6423 64.1799 76.0923 64.1799 76.0923C64.1799 76.0923 64.9699 59.9723 64.9699 54.7423C64.9699 49.5123 62.1499 49.1923 61.6999 46.6823C61.3499 44.7523 62.0699 41.7923 62.6299 32.0923L62.6199 32.1123Z" fill="#69D80D"/>
<path fill-rule="evenodd" clip-rule="evenodd" d="M57.9799 29.0821C57.86 31.9421 53.82 31.1421 55.42 28.8321C56.1 27.8421 57.5499 27.5421 57.9799 29.0821Z" fill="#191700"/>
<path fill-rule="evenodd" clip-rule="evenodd" d="M58.0901 28.6122C57.9701 31.4722 53.9301 30.6722 55.5301 28.3622C56.2101 27.3722 57.6601 27.0722 58.0901 28.6122Z" fill="#191700"/>
<path fill-rule="evenodd" clip-rule="evenodd" d="M58.1099 22.4923C57.1499 27.4923 51.7699 26.1023 54.6299 22.0523C55.8499 20.3223 57.9499 19.7923 58.1099 22.4923Z" fill="#191700"/>
<path fill-rule="evenodd" clip-rule="evenodd" d="M57.3199 22.2823C56.3599 27.2823 50.9799 25.8923 53.8399 21.8423C55.0599 20.1123 57.1599 19.5823 57.3199 22.2823Z" fill="#191700"/>
<path fill-rule="evenodd" clip-rule="evenodd" d="M66.7 54.1224C66.7 53.9024 66.87 53.7224 67.09 53.7124C67.31 53.7124 67.49 53.8824 67.5 54.1024C67.73 62.9524 66.71 77.0824 66.71 77.1224C66.71 77.2224 66.66 77.3224 66.59 77.3824C66.36 77.6224 63.0799 81.0224 61.4799 83.6124C59.7499 86.4024 56.89 88.6124 56.88 88.6224C56.81 88.6724 56.73 88.7024 56.65 88.7024C56.34 88.7224 49.4799 89.2624 44.9799 90.0024C41.4799 90.5824 31.69 89.5124 26.36 88.9324C24.57 88.7324 23.28 88.5924 22.95 88.5924H22.85C21.64 88.5924 14.75 88.6224 9.91995 86.3124C7.88995 85.3424 6.05995 82.2224 4.53995 79.6324C3.65995 78.1424 2.88996 76.8324 2.29996 76.2924C2.13996 76.1424 2.11999 75.8924 2.26999 75.7324C2.41999 75.5724 2.66998 75.5524 2.82998 75.7024C3.50998 76.3124 4.31 77.6724 5.22 79.2324C6.68 81.7224 8.44998 84.7324 10.26 85.5924C14.93 87.8224 21.67 87.8024 22.85 87.8024H22.95C23.31 87.8024 24.61 87.9424 26.44 88.1424C31.73 88.7224 41.46 89.7824 44.85 89.2224C49.14 88.5124 55.52 87.9924 56.47 87.9224C56.96 87.5224 59.3199 85.5724 60.7899 83.2024C62.3299 80.7124 65.3299 77.5424 65.9199 76.9224C66.0199 75.4324 66.91 62.4124 66.7 54.1224Z" fill="#407B27"/>
<path fill-rule="evenodd" clip-rule="evenodd" d="M11.5701 75.9822C9.11012 77.5622 7.40015 73.9422 10.2801 73.8322C11.5101 73.7822 12.6101 74.7422 11.5701 75.9822Z" fill="#191700"/>
<path fill-rule="evenodd" clip-rule="evenodd" d="M12.0301 75.8023C9.57013 77.3823 7.86009 73.7623 10.7401 73.6523C11.9701 73.6023 13.0701 74.5623 12.0301 75.8023Z" fill="#191700"/>
<path fill-rule="evenodd" clip-rule="evenodd" d="M17.3399 78.4722C16.3899 83.4722 10.9999 82.0822 13.8599 78.0322C15.0799 76.3022 17.1799 75.7722 17.3399 78.4722Z" fill="#191700"/>
<path fill-rule="evenodd" clip-rule="evenodd" d="M16.5498 78.2623C15.5898 83.2623 10.2099 81.8723 13.0699 77.8223C14.2899 76.0923 16.3898 75.5623 16.5498 78.2623Z" fill="#191700"/>
<path d="M28.0223 22.8488C29.1258 22.8966 29.9816 23.83 29.9338 24.9335L27.8538 72.8885C27.8059 73.992 28.6617 74.9254 29.7653 74.9732L30.7643 75.0166C31.8679 75.0644 32.8013 74.2087 32.8491 73.1051L34.9291 25.1502C34.9769 24.0467 35.9103 23.1909 37.0139 23.2388L44.0073 23.5421C45.1108 23.5899 46.0442 22.7342 46.0921 21.6306L46.1354 20.6316C46.1833 19.528 45.3275 18.5946 44.2239 18.5468L36.2315 18.2001C35.6797 18.1762 35.2518 17.7095 35.2757 17.1577C35.2997 16.606 34.8718 16.1393 34.32 16.1153L31.3228 15.9853C30.7711 15.9614 30.3044 16.3893 30.2804 16.9411C30.2565 17.4928 29.7898 17.9207 29.238 17.8968L20.2465 17.5068C19.143 17.4589 18.2096 18.3147 18.1617 19.4183L18.1184 20.4173C18.0705 21.5208 18.9263 22.4542 20.0298 22.5021L28.0223 22.8488Z" fill="#407B27"/>
<path d="M28.9354 23.8468C30.0389 23.8947 30.8947 24.8281 30.8469 25.9316L28.7669 73.8865C28.719 74.99 29.5748 75.9234 30.6784 75.9713L31.6774 76.0146C32.7809 76.0625 33.7143 75.2067 33.7622 74.1032L35.8422 26.1483C35.89 25.0447 36.8234 24.1889 37.9269 24.2368L44.9204 24.5401C46.0239 24.588 46.9573 23.7322 47.0052 22.6287L47.0485 21.6296C47.0963 20.5261 46.2406 19.5927 45.137 19.5448L37.1445 19.1982C36.5928 19.1742 36.1649 18.7075 36.1888 18.1558C36.2127 17.604 35.7849 17.1373 35.2331 17.1134L32.2359 16.9834C31.6841 16.9594 31.2174 17.3873 31.1935 17.9391C31.1696 18.4909 30.7029 18.9188 30.1511 18.8948L21.1596 18.5048C20.056 18.457 19.1227 19.3128 19.0748 20.4163L19.0315 21.4154C18.9836 22.5189 19.8394 23.4523 20.9429 23.5001L28.9354 23.8468Z" fill="#191700"/>
</g>
<defs>
<filter id="filter0_d_244_871" x="0" y="0" width="70.2729" height="102.448" filterUnits="userSpaceOnUse" color-interpolation-filters="sRGB">
<feFlood flood-opacity="0" result="BackgroundImageFix"/>
<feColorMatrix in="SourceAlpha" type="matrix" values="0 0 0 0 0 0 0 0 0 0 0 0 0 0 0 0 0 0 127 0" result="hardAlpha"/>
<feOffset dx="-2" dy="4"/>
<feComposite in2="hardAlpha" operator="out"/>
<feColorMatrix type="matrix" values="0 0 0 0 0.289876 0 0 0 0 0.241464 0 0 0 0 0.0316769 0 0 0 1 0"/>
<feBlend mode="normal" in2="BackgroundImageFix" result="effect1_dropShadow_244_871"/>
<feBlend mode="normal" in="SourceGraphic" in2="effect1_dropShadow_244_871" result="shape"/>
</filter>
</defs>
</svg>
